<?xml version="1.0" encoding="UTF-8" standalone="no"?>
<!-- Generator: Adobe Illustrator 27.9.0, SVG Export Plug-In . SVG Version: 6.00 Build 0)  -->

<svg
   version="1.1"
   id="Layer_1"
   x="0px"
   y="0px"
   viewBox="0 0 716.84442 732.61749"
   xml:space="preserve"
   sodipodi:docname="UCL-CBDS-vectorised-cropped.svg"
   width="716.84442"
   height="732.61749"
   inkscape:version="1.2.2 (732a01da63, 2022-12-09, custom)"
   xmlns:inkscape="http://www.inkscape.org/namespaces/inkscape"
   xmlns:sodipodi="http://sodipodi.sourceforge.net/DTD/sodipodi-0.dtd"
   xmlns="http://www.w3.org/2000/svg"
   xmlns:svg="http://www.w3.org/2000/svg"><defs
   id="defs191" /><sodipodi:namedview
   id="namedview189"
   pagecolor="#ffffff"
   bordercolor="#000000"
   borderopacity="0.25"
   inkscape:showpageshadow="2"
   inkscape:pageopacity="0.0"
   inkscape:pagecheckerboard="0"
   inkscape:deskcolor="#d1d1d1"
   showgrid="false"
   inkscape:zoom="0.80371094"
   inkscape:cx="358.33779"
   inkscape:cy="364.55893"
   inkscape:window-width="1920"
   inkscape:window-height="989"
   inkscape:window-x="0"
   inkscape:window-y="27"
   inkscape:window-maximized="1"
   inkscape:current-layer="Layer_1" />
<style
   type="text/css"
   id="style18">
	.st0{fill:none;stroke:#9099A5;stroke-width:2;}
	.st1{fill:none;stroke:#935E61;stroke-width:2;}
	.st2{fill:none;stroke:#E3AEAA;stroke-width:2;}
	.st3{fill:none;stroke:#FDBFB6;stroke-width:2;}
	.st4{fill:none;stroke:#C4A2A6;stroke-width:2;}
	.st5{fill:none;stroke:#F1F5F9;stroke-width:2;}
	.st6{fill:none;stroke:#C76762;stroke-width:2;}
	.st7{fill:none;stroke:#E67366;stroke-width:2;}
	.st8{fill:none;stroke:#AD5656;stroke-width:2;}
	.st9{fill:none;stroke:#5A4151;stroke-width:2;}
	.st10{fill:none;stroke:#8794A4;stroke-width:2;}
	.st11{fill:#263750;}
	.st12{fill:#FAFAFA;}
	.st13{fill:#8E4A52;}
	.st14{fill:#FF8471;}
	.st15{fill:#E7F0F8;}
	.st16{fill:#CC625A;}
</style>
<g
   id="g118"
   transform="translate(-153.8116,-147.4825)">
	<path
   vector-effect="non-scaling-stroke"
   class="st0"
   d="m 511.1,149.7 c 0,-0.7 -0.1,-1.1 -0.1,-1.1 -0.7,0.1 -1.2,0.7 -1.2,1.4 v 36.5 c 0,0.3 -0.2,0.5 -0.5,0.5 -14.9,0.5 -25.1,1.1 -30.7,1.8 -118.2,14.1 -228,106.2 -208.1,236.2 0.7,4.3 1.2,8.7 1.7,13 0.6,6.1 -4.4,15.6 -7.2,20.4 -11.9,20.4 -25.8,43 -41.8,68 -3.5,5.5 -7.2,9.9 -7.3,16.2 -0.1,6.1 2.7,10.9 8.4,14.7"
   id="path20" />
	<path
   vector-effect="non-scaling-stroke"
   class="st1"
   d="m 224.2,557.4 c 4.7,3 9.5,5.2 14.3,6.8 5.9,1.9 11,4 15.3,6.3"
   id="path22" />
	<path
   vector-effect="non-scaling-stroke"
   class="st0"
   d="m 253.9,570.4 c 0.8,3 1.1,5.9 0.8,8.7 -1,8.5 -9.4,14.2 -10.4,22.7 -0.8,6.9 2.9,11.2 7.7,17.3 0.2,0.3 0.2,0.6 0.1,0.9 -3.8,5.9 -6.3,9.7 -6.8,16.9 0,0.4 -0.2,0.6 -0.6,0.6 -22.4,0 -44.6,0.1 -66.4,0.2 -1.4,0 -2.1,0.2 -2,0.6"
   id="path24" />
	<path
   vector-effect="non-scaling-stroke"
   class="st2"
   d="m 275,723.1 c -9.4,-3.4 -15.3,-10 -17.9,-19.7 -1.8,-6.8 0.1,-11.4 2.9,-18.2 2.8,-6.9 1.4,-15.5 -1.1,-22.3 -1.3,-3.7 -6.4,-6.2 -8,-8.6 -2.7,-3.8 -4.4,-8 -5,-12.7 0,-0.3 -0.2,-0.5 -0.6,-0.5 h -10"
   id="path26" />
	<path
   vector-effect="non-scaling-stroke"
   class="st3"
   d="m 235.2,641.3 -58.1,-0.1 c -0.3,0 -0.5,-0.1 -0.7,-0.4 l -0.3,-0.5"
   id="path28" />
	<path
   vector-effect="non-scaling-stroke"
   class="st4"
   d="m 512.7,150.2 c 0.5,0 0.8,0.1 0.8,0.3"
   id="path30" />
	<path
   vector-effect="non-scaling-stroke"
   class="st0"
   d="m 849.3,641.4 -70.1,0.1 c -0.4,0 -0.6,0.2 -0.6,0.6 -1,7.5 -4.6,13.2 -10.7,17.1 -3.1,2 -4,3.4 -4.6,6.9 -0.8,4.5 -1.1,8.8 -0.9,12.8 0.3,7 4.7,13.1 5,19.8 0.6,11.1 -7.5,21.3 -17.7,24.7 -2.9,1 -7.2,1.5 -13,1.5 -23.4,0.1 -46.7,0.2 -70.1,0.1 -16.7,0 -29.2,1.9 -41.3,12.8 -18.7,16.7 -28.1,42 -28.4,67 -0.2,20.9 -0.2,41.7 0,62.6 0,0.2 -0.1,0.4 -0.4,0.5 -0.1,0 -0.2,0 -0.4,-0.2"
   id="path32" />
	<path
   vector-effect="non-scaling-stroke"
   class="st5"
   d="m 522.5,877.8 c -0.5,-4 -0.6,-8.1 -0.3,-12.1 0.8,-12 1.1,-24.2 0.8,-36.2 -0.3,-12.3 0.3,-25.5 0.1,-37 -0.2,-17.3 0,-34.6 -0.3,-52 -0.1,-3 -1,-4.9 -4,-5.3 -0.9,-0.1 -1.4,-0.3 -1.7,-0.6 -0.6,-0.6 -0.7,-1.3 -0.3,-1.9 0.1,-0.3 0.2,-0.6 0,-0.9 -0.9,-2.2 -1.2,-4.3 -0.8,-6.6 0.5,-2.6 0,-4.9 1.1,-7.4 0.1,-0.3 0.3,-0.5 0.6,-0.7 1.7,-0.9 2.1,-2.2 1.2,-4 -0.1,-0.3 0,-0.6 0.2,-0.8 0.7,-0.4 1.5,-0.5 2.2,0 0.4,0.3 1,0.1 1.3,-0.3 0.1,-0.1 0.1,-0.3 0.1,-0.5 l 0.1,-6.7 c 0,-0.5 -0.4,-0.9 -0.8,-0.9 -0.3,0 -0.7,0.2 -0.8,0.5 -0.6,1.3 -1.5,1.6 -2.9,0.9 -0.3,-0.1 -0.4,-0.4 -0.4,-0.7 L 518,701 c 0,-0.3 -0.1,-0.6 -0.3,-0.9 l -1.2,-1.9 c -0.2,-0.3 -0.3,-0.6 -0.2,-0.9 l 0.2,-9.6 c 0,-1 0.8,-1.9 1.9,-2.1 l 1.9,-0.3 c 0.6,-0.1 1,-0.6 0.9,-1.2 0,-0.3 -0.2,-0.6 -0.5,-0.8 -4.5,-2.9 0.9,-6.1 2.7,-8.3 0.2,-0.3 0.3,-0.6 0.3,-0.9 0.2,-40.2 0,-80.4 0.1,-120.6 0,-7.9 -2.4,-17.3 3.8,-23.9 1.8,-1.9 4.1,-3.1 6.9,-3.4 0.3,0 0.6,-0.2 0.9,-0.3 1.5,-1 3.2,-0.6 4.5,-0.8 7,-1.1 13.4,1.9 20.2,3.5 0.2,0 0.3,0 0.5,-0.1 0.2,-0.2 0.4,-0.2 0.6,-0.2 3,0.4 6,0.3 9,-0.2 0.1,0 0.1,-0.1 0.1,-0.1 0,0 0,-0.2 0,-0.3 0,-0.1 0,-0.2 0.2,-0.2 2.1,-0.2 3.9,-1.1 5.3,-2.7 0.1,-0.1 0.2,-0.1 0.2,-0.1 l 0.2,0.3 c 0.1,0.1 0.2,0.1 0.2,0 6.1,-6.1 7.2,-12 8.5,-20.2 0.8,-4.8 3.5,-8.3 8.3,-10.3 0.1,0 0.1,0 0.1,0.1 0,0 0,0.1 0,0.1 -0.1,0.2 -0.2,0.3 -0.1,0.3 0.1,0.2 0.3,0.2 0.5,0.1 4.7,-2.8 7.4,-6.6 11.8,-9.6 4.8,-3.3 7.6,-8.2 10.6,-11.8 2.9,-3.4 6.4,-8.7 10.5,-10.4 4.9,-2.1 9.1,-1.5 13.6,-3 1.5,-0.5 3.3,-1.3 5.3,-2.4 4.7,-2.6 7.5,-6.9 8.6,-12.9 0.1,-0.3 0.2,-0.4 0.5,-0.5 0.4,0 0.9,-1.3 1.6,-3.7 1.6,-6 15.1,-5.2 19.6,-4.6 2.8,0.4 4.9,-1.1 7,-1.2 3.2,-0.1 6.2,0.8 9.3,0.4 7.2,-1.1 14.4,-1.9 21.7,-2.5 10.3,-0.8 11,-4.5 10.3,-14.1 -0.1,-1.2 -0.5,-3.1 -1.2,-5.7 -0.9,-3.1 -1.3,-6.6 -1.3,-10.5 0,-1.2 -0.5,-2.2 -1.6,-3 -0.2,-0.2 -0.4,-0.4 -0.5,-0.7 -0.3,-0.8 -0.8,-1 -1.5,-0.8"
   id="path34" />
	<path
   vector-effect="non-scaling-stroke"
   class="st0"
   d="m 718,398.3 c -6.2,-36.6 -21.8,-68.5 -46.9,-95.6 -14.4,-15.6 -26,-24.6 -40.6,-36 -0.3,-0.2 -0.4,-0.5 -0.3,-0.8 3.5,-15.5 -12.4,-26.1 -24.9,-15.7 -0.3,0.2 -0.6,0.3 -1,0.1 -28.2,-14.8 -58.3,-23 -90.2,-24.4 -0.4,0 -0.6,0.2 -0.6,0.6 l -0.2,5.4"
   id="path36" />
	<path
   vector-effect="non-scaling-stroke"
   class="st5"
   d="m 513.3,231.8 c -0.3,16.1 -0.5,32.1 -0.3,48 0,1.1 0.3,2 0.6,3"
   id="path38" />
	<path
   vector-effect="non-scaling-stroke"
   class="st0"
   d="m 513.5,282.7 0.4,6.6 c 0,0.3 0.1,0.5 0.4,0.7 l 43.6,31.7 c 0.3,0.2 0.4,0.5 0.5,0.8 1.2,9.7 6.7,14.8 16.5,15.3 0.5,0 0.8,0.3 1,0.7 l 20.1,40 c 0.1,0.3 0.1,0.6 -0.1,0.8 -5.8,5.3 -6.8,11.6 -3.1,18.7"
   id="path40" />
	<path
   vector-effect="non-scaling-stroke"
   class="st5"
   d="m 592.9,398.1 c -1.5,1.9 -0.8,4.1 2.3,6.6 0.3,0.2 0.4,0.5 0.5,0.8 0.7,3.3 2.3,4.7 5.5,6.2 3,1.4 5.3,3.3 8.9,3.5 0.1,0 0.2,0.1 0.3,0.1 l 0.3,0.3 c 0.2,0.2 0.5,0.4 0.8,0.4 h 10.3 c 0.2,0 0.4,-0.2 0.4,-0.4 0,-0.1 0,-0.1 0,-0.2 -0.1,-0.1 -0.1,-0.2 -0.2,-0.3 0,-0.1 0,-0.2 0.1,-0.3 3.2,-1.7 2.5,-7.8 3.6,-11.2 1.2,-4 1.2,-7.7 2.2,-11.7 0.1,-0.3 0.2,-0.5 0.4,-0.7 l 8,-7 c 0,0 0,-0.1 0,-0.1 -0.1,-0.1 -0.2,-0.1 -0.2,-0.2 -0.1,-0.1 -0.1,-0.3 0,-0.4 0,0 0,0 0.1,-0.1 4.1,-2.3 7.7,-5.2 10.8,-8.7 0,0 0.1,0 0.1,0 0,0 0,0 0,0 0,0.1 0.1,0.2 0.1,0.2 0.1,0.2 0.2,0.2 0.3,0.1 5.5,-4 8.1,-10.1 16.2,-8.1 2.9,0.7 7,0.8 12,0.3 8.7,-0.9 9.6,-8.1 15.4,-12.6 1.5,-1.1 3.1,-1 5,0.4 0.2,0.1 0.3,0.1 0.5,0 l 0.4,-0.4 c 0.1,-0.1 0.3,-0.1 0.5,0 0,0 0.1,0.1 0.1,0.1 0.3,1 0.9,1.5 1.7,1.5"
   id="path42" />
	<path
   vector-effect="non-scaling-stroke"
   class="st0"
   d="m 699.3,356.4 c 8.4,19 13.1,38.8 14.1,59.5 0,0.4 -0.2,0.6 -0.5,0.6 l -71,2.5 c -0.3,0 -0.7,-0.1 -1,-0.3 -7.6,-5.1 -15.1,-4.8 -22.4,0.7 -0.5,0.4 -1.1,0.5 -1.7,0.4 L 564.9,409 c -0.2,0 -0.3,-0.2 -0.3,-0.3 -0.3,-6 -4,-11.2 -10,-12.3 -4.4,-0.8 -7.6,1.1 -11.2,3.6 -0.3,0.2 -0.5,0.2 -0.8,-0.1 l -28.2,-29.4 c -0.3,-0.3 -0.3,-0.8 0,-1.1 0,0 0,0 0,0 0.4,-0.3 0.4,-0.8 0,-1.3 -0.2,-0.2 -0.3,-0.2 -0.3,0.1 l -0.5,10.3"
   id="path44" />
	<path
   vector-effect="non-scaling-stroke"
   class="st5"
   d="m 513.5,378.5 c -0.8,15.3 -0.6,30.9 0.5,46.8"
   id="path46" />
	<path
   vector-effect="non-scaling-stroke"
   class="st0"
   d="M 514.1,425.3 514,432 c 0,0.2 0.2,0.4 0.4,0.4 0.1,0 0.1,0 0.2,-0.1 l 27,-16.6 c 0.3,-0.2 0.6,-0.1 0.9,0.2 2.6,3.5 6.1,5 10.5,4.4 0.5,-0.1 0.7,0.1 0.7,0.6 l 2.7,63.1 c 0,0.4 -0.2,0.7 -0.6,0.8 -9.1,1.9 -13.4,7.6 -13.1,17 0,0.5 -0.2,0.8 -0.7,1 -9,3.6 -18.2,6.3 -27.7,8.2 -0.4,0.1 -0.5,0.3 -0.5,0.7 l -0.1,4.4"
   id="path48" />
	<path
   vector-effect="non-scaling-stroke"
   class="st5"
   d="m 513.8,516.2 c -1.2,8.9 -0.8,17.9 -1,26.9 -0.1,7.3 -0.2,13.2 -0.2,17.5 0.1,67.1 0.1,134.1 -0.1,201.2 -0.1,23.6 -0.2,47.4 0.1,71 0.2,15 0.3,29.8 0.2,44.6"
   id="path50" />
	<path
   vector-effect="non-scaling-stroke"
   class="st3"
   d="M 509.5,877.7 V 524.8 c 0,-0.4 -0.2,-0.5 -0.5,-0.5 -88,0 -176.1,0 -264.1,0.2 -5.1,0 -9.9,0.2 -14.4,0.5 -1.1,0.1 -2.1,0.6 -2.7,1.5 -2.8,4 -6.4,8.7 -7.8,12.9 -1.9,6.2 -0.5,12.2 4.2,18"
   id="path52" />
	<path
   vector-effect="non-scaling-stroke"
   class="st3"
   d="m 431,865.8 c 0,-9.6 -0.1,-29.2 -0.3,-59 -0.2,-20.1 -5.9,-38.2 -17.1,-54.2 -0.2,-0.2 -0.3,-0.3 -0.5,-0.3 -0.2,0 -0.4,0 -0.7,0.1"
   id="path54" />
	<path
   vector-effect="non-scaling-stroke"
   class="st6"
   d="M 412.4,752.3 C 398,733 382.5,725 358.2,725 c -23.3,0 -46.7,0.1 -70,0.3 -2.8,0 -6.6,-0.4 -11.5,-1.3"
   id="path56" />
	<path
   vector-effect="non-scaling-stroke"
   class="st7"
   d="M 276.8,724 275,723.2"
   id="path58" />
	<path
   vector-effect="non-scaling-stroke"
   class="st3"
   d="m 275,723.1 c -4.7,-3.2 -8.7,-7 -11.8,-11.3 -4.9,-6.8 -5.8,-14 -2.8,-21.4 4,-9.9 3.9,-17.9 0.3,-27.9 -1.4,-4.1 -6.9,-6.8 -9.2,-10.9 -3.3,-5.9 -4.3,-12.2 -2.9,-19 1,-4.6 3.9,-9.2 6.4,-13.6 0.2,-0.3 0.1,-0.6 -0.1,-0.8 -5.5,-4.8 -10.6,-13.5 -6.6,-20.9 2.9,-5.1 7.5,-11.1 8.3,-16.3 0.6,-4 -0.3,-7.6 -2.8,-10.6"
   id="path60" />
	<path
   vector-effect="non-scaling-stroke"
   class="st8"
   d="m 276.8,724 c -0.5,0.2 -0.9,0.4 -1.1,0.8 -0.2,0.3 -0.1,0.5 0,0.8 4.2,6.2 8.5,6.8 14.6,8.7 3.8,1.2 7.4,1 11.3,1.2 0.1,0 0.1,0 0.1,0.1 0,0.1 0.1,0.2 0.1,0.3 0,0.1 0.1,0.2 0.3,0.2 11.4,0.1 22.8,0.3 34.2,0.7 9.4,0.3 19.9,0 29.9,0.3 2.1,0.1 4.5,1 6.8,1.2 5.4,0.5 10.5,2.2 15.7,3.9 0.1,0 0.4,0.2 0.8,0.5 0.3,0.2 0.7,0.5 1.3,0.7 4.4,1.4 9.2,3.7 14.3,6.9 0.3,0.2 0.6,0.2 0.9,0.2 0.8,-0.1 1.4,0.1 1.9,0.6 0.1,0.1 0.3,0.3 0.4,0.4 2.1,1.7 3.6,2.2 4.6,1.7"
   id="path62" />
	<path
   vector-effect="non-scaling-stroke"
   class="st2"
   d="m 412.9,753 c 8.9,15.3 13.7,31.1 14.4,47.5 0.4,10.2 0.6,31.9 0.7,65.2 0,0.2 0.2,0.3 0.6,0.4"
   id="path64" />
	<path
   vector-effect="non-scaling-stroke"
   class="st7"
   d="m 235.2,641.3 c 0.4,0.1 0.8,0.2 1.3,0.2 0.3,0 0.4,0.1 0.3,0.4 -0.3,0.9 -0.3,1.7 0.1,2.4 2.1,4 3.1,8.1 3.2,12.2 0.1,2.8 0.9,5.2 1.2,7.8 1.3,9.2 5.2,17.3 5.8,26.9 0.4,5.9 1,11.7 2,17.5 1.9,11.1 2.9,18.1 8.6,25.9 3.5,4.7 7.4,8.6 11.7,11.6 0.5,0.4 0.9,0.7 1.2,1 0.2,0.2 0.4,0.4 0.7,0.5 1.5,0.7 3.9,2.2 7.3,4.4 5.2,3.3 13.7,5.2 20.5,6.1 17.7,2.3 35.3,0 52.9,2.4 4.1,0.6 8.4,0.6 12.8,0 11.6,-1.4 23.6,4.1 31.8,11.5 0.2,0.2 0.5,0.3 0.8,0.3 0.5,0 1,0.3 1.3,0.8 4.2,6.6 6.9,13.2 8.5,20.8 0.4,1.8 0.9,3.6 1.5,5.4 0.1,0.2 0,0.4 -0.3,0.5 -0.2,0.1 -0.3,0.4 -0.2,0.7 2.8,5.8 2.1,9.9 2.2,16 0.2,8.9 0.4,17.8 0.6,26.7 0,2.8 1.1,8.9 3,18.3 0.2,1.1 -0.2,1.9 -1.2,2.5"
   id="path66" />
	<path
   vector-effect="non-scaling-stroke"
   class="st0"
   d="m 851,637.6 h -71.6 c -0.3,0 -0.6,-0.2 -0.6,-0.6 -0.1,-6.7 -2.7,-11 -6.7,-17.3 -0.2,-0.3 -0.2,-0.6 0.1,-0.8 20.9,-20.3 -5.8,-26.3 -2.6,-44.8 0.6,-3.3 2.1,-5.4 4.6,-6.2 6.3,-2 12.4,-4.4 18.5,-7 10.1,-4.4 18.2,-10.3 15.2,-22.1 -0.7,-2.6 -2.8,-6.7 -6.5,-12.4 -13.7,-21.5 -27.1,-43.1 -40.2,-65 -4.6,-7.7 -9.5,-16.3 -8.4,-25.5 1.8,-15.2 2.8,-24.7 3,-28.6 2.8,-47.2 -9.9,-89.1 -38,-125.6 C 670.4,220 591.5,188 514.7,187.1 c -0.6,0 -0.9,-0.3 -0.9,-0.9 l -0.2,-35.7"
   id="path68" />
	<path
   vector-effect="non-scaling-stroke"
   class="st9"
   d="m 513.5,150.5 c 0.4,-0.1 0.2,-0.8 -0.6,-2.2"
   id="path70" />
	<path
   vector-effect="non-scaling-stroke"
   class="st10"
   d="m 718,398.3 1.5,23.1 c 0,0.7 -0.3,1.1 -1,1.1 l -73.4,2.6 c -0.4,0 -0.5,0.2 -0.5,0.6 1.9,12.6 -7.5,21.4 -20.1,19.3 -0.3,-0.1 -0.6,0 -0.8,0.3 -9.6,10.7 -18.8,21.5 -29.7,31.6 -6.6,6.1 -14.2,11.8 -21.6,17.4 -0.3,0.2 -0.4,0.5 -0.3,0.8 1.9,9.7 -1.6,15.8 -10.4,18.4 -6,1.8 -11.3,0.3 -15.7,-4.6 -0.2,-0.3 -0.5,-0.3 -0.9,-0.2 -9.9,3.9 -20,6.9 -30.5,9 -0.4,0.1 -0.6,-0.1 -0.7,-0.5 l -0.2,-0.9"
   id="path72" />
	<path
   vector-effect="non-scaling-stroke"
   class="st10"
   d="m 514.1,425.3 c 12.5,-7 20.5,-11.8 23.9,-14.4 2.4,-1.9 2.6,-3.8 0.6,-6 -6.7,-7.1 -13.3,-14.2 -19.9,-21.3 -1.5,-1.6 -3.6,-3.2 -5.1,-5.1"
   id="path74" />
	<path
   vector-effect="non-scaling-stroke"
   class="st10"
   d="m 699.3,356.4 c -15.1,-35 -41.8,-63.6 -73,-85 -0.3,-0.2 -0.6,-0.2 -0.8,0 -9.8,8.9 -24.1,1.8 -24.4,-10.9 0,-1.2 0.3,-2.9 0.2,-4.4 0,-0.3 -0.2,-0.6 -0.5,-0.8 -26.4,-14.5 -57.4,-22 -87.4,-23.6"
   id="path76" />
	<path
   vector-effect="non-scaling-stroke"
   class="st10"
   d="m 592.9,398.1 c 10.1,13.3 28.3,2.3 24.4,-13.1 -0.2,-0.8 0.1,-1.6 0.7,-2.1 l 38.3,-30.4 c 0.5,-0.4 1.2,-0.4 1.7,0 14.8,10.4 33,-12.4 17.2,-24.6"
   id="path78" />
	<path
   vector-effect="non-scaling-stroke"
   class="st5"
   d="m 675.2,327.8 0.8,-2.6 c 0.1,-0.3 0,-0.6 -0.2,-0.9 -1.5,-1.5 -2.9,-3.7 -4.2,-6.6 -2.4,-5.2 -7.6,-9 -12.1,-13.3 -1.5,-1.4 -2.7,-3.4 -4.5,-4.9 -1.2,-0.9 -2,-1.7 -2.4,-2.1 -4,-4 -8.3,-7.7 -12.9,-11 -0.3,-0.2 -0.6,-0.3 -0.9,-0.3 -2.8,0.1 -5.1,-1.3 -7.5,-1.3 -3.2,-0.1 -6.4,0 -9.6,0.2 -0.3,0 -0.6,0 -0.9,-0.2 -3.5,-1.7 -6,-1.1 -9.8,-4.3 -0.2,-0.1 -0.3,-0.3 -0.4,-0.6 l -0.8,-2.6 c -0.1,-0.3 -0.4,-0.6 -0.7,-0.6 -1.9,-0.3 -3.1,-0.6 -4.3,-2.2 -1.7,-2.3 -3.6,-4.4 -5.7,-6.3 -0.2,-0.2 -0.4,-0.5 -0.5,-0.8 l -0.4,-1.7 c -0.1,-0.3 -0.2,-0.6 -0.4,-0.9 l -2.1,-3.2 c -0.2,-0.2 -0.4,-0.4 -0.6,-0.5 -3.1,-1.6 -5.4,-4.6 -8.5,-5.7 -5.8,-2 -11.8,-3.5 -17.6,-5.8 -1.7,-0.7 -3.4,-1.3 -5.1,-1.8 -1,-0.3 -2.4,-0.6 -4.3,-0.8 -1.5,-0.1 -2.9,-0.4 -4.3,-0.9 -3.5,-1.1 -5.5,-1.7 -6.1,-1.9 -4.4,-1 -8.2,-2.8 -12.6,-2.9 -3.1,-0.1 -6.3,0 -9.4,0.1 0.2,0.1 0.3,0 0.4,-0.1 0.1,-0.2 0.1,-0.3 -0.2,-0.2 -7.5,1.7 -8.2,21.2 -7.7,27.6 0.4,5.8 -0.2,11.7 0.1,17.6"
   id="path80" />
	<path
   vector-effect="non-scaling-stroke"
   class="st10"
   d="m 519.5,286.2 -5.9,-3.5"
   id="path82" />
	<path
   vector-effect="non-scaling-stroke"
   class="st4"
   d="m 412.4,752.3 c 0.1,-0.1 0.2,0.1 0.5,0.6"
   id="path84" />
	<path
   vector-effect="non-scaling-stroke"
   class="st0"
   d="m 675.2,327.8 c -13.5,-9 -28,3.9 -22.5,18.9 0.1,0.3 0,0.6 -0.2,0.8 L 613,379 c -0.3,0.3 -0.6,0.3 -0.9,0 -2.8,-2.2 -6.1,-3 -9.6,-2.2 -0.3,0.1 -0.5,0 -0.7,-0.3 L 582,336 c -0.2,-0.3 -0.1,-0.6 0.2,-0.8 8.8,-6.2 9.9,-19.3 0.4,-25.4 -7.8,-5 -17.3,-2.1 -22.2,5.4 -0.2,0.3 -0.4,0.3 -0.7,0.1 l -40.3,-29.2"
   id="path86" />
	<path
   vector-effect="non-scaling-stroke"
   class="st3"
   d="m 393.6,259.8 1.4,2.8 c 0.2,0.4 0.1,0.9 -0.3,1.2 -35.2,26.5 -62.2,57.7 -80.3,98.6 -0.2,0.4 -0.1,0.7 0.2,1 1.8,1.6 3.2,3.5 4.1,5.7 0.1,0.3 0.4,0.5 0.8,0.5 l 45.1,-0.2 c 0.4,0 0.7,-0.2 0.9,-0.5 5.3,-7.9 13,-9.2 17.8,0.1 0.1,0.3 0.4,0.5 0.8,0.5 l 20,0.1 c 0.2,0 0.3,-0.1 0.3,-0.3 0,0 0,0 0,0 l -0.1,-104.5 c 0,-0.5 -0.2,-0.7 -0.8,-0.7 -20,0.8 -9,-29.6 6.7,-16.5 0.3,0.2 0.5,0.2 0.8,0.1 28.9,-17.2 64.2,-26.1 97.7,-27.2 0.4,0 0.6,-0.2 0.6,-0.6 l 0.4,-27.8 c 0,-0.3 -0.2,-0.5 -0.5,-0.5 -10.7,0 -19.5,0.4 -26.4,1.2 -8.8,1 -17.6,1.8 -26.1,3.8 -8.9,2 -16,3.8 -21.2,5.4 -70.1,20.5 -133.3,68.7 -155.7,140.6 -8.9,28.6 -9.4,59 -5.1,88.4 1.4,9.7 0.4,16.7 -4.3,24.9 -12.2,21.5 -24.9,42.6 -38.2,63.3 -0.2,0.3 -0.1,0.4 0.2,0.4 h 247.3 c 0.3,0 0.5,-0.2 0.5,-0.5 L 480,479.7 c 0,-0.3 -0.3,-0.6 -0.6,-0.6 v 0 c -20.5,-0.1 -41,0 -61.6,0.2 -3.1,0 -5.2,-0.5 -6.2,-1.5 -32.5,-32.2 -64.9,-64.4 -97.5,-96.5 -0.2,-0.2 -0.5,-0.3 -0.8,-0.1 -13.8,6.4 -21.6,-16.5 -4.4,-19.4 0.3,-0.1 0.6,-0.3 0.7,-0.6 17.3,-39.8 46.4,-77.2 82.6,-101.6 0.8,-0.4 1.1,-0.3 1.4,0.2"
   id="path88" />
	<path
   vector-effect="non-scaling-stroke"
   class="st3"
   d="m 485.9,335.1 c 0,0.1 0,0.2 0.1,0.2 l 22.9,23.2 c 0.1,0.1 0.4,0.1 0.5,0 0.1,-0.1 0.1,-0.2 0.1,-0.2 v -132 c 0,-0.2 -0.2,-0.4 -0.3,-0.4 0,0 0,0 0,0 l -23,1.7 c -0.2,0 -0.3,0.2 -0.3,0.4 v 107.1"
   id="path90" />
	<path
   vector-effect="non-scaling-stroke"
   class="st3"
   d="m 458.3,307.2 c 0,0.1 0.1,0.3 0.2,0.4 l 20.9,20.8 c 0.2,0.2 0.6,0.2 0.8,0 0.1,-0.1 0.2,-0.2 0.2,-0.4 l -0.1,-98.6 c 0,-0.3 -0.2,-0.5 -0.5,-0.5 0,0 -0.1,0 -0.1,0 l -21.2,4.5 c -0.3,0.1 -0.4,0.3 -0.4,0.5 l 0.2,73.3"
   id="path92" />
	<path
   vector-effect="non-scaling-stroke"
   class="st3"
   d="m 411.7,261.1 c 13,12.6 25.9,25.6 38.8,39 1.3,1.4 2,1.1 2,-0.8 l 0.1,-63.4 c 0,-0.1 -0.1,-0.2 -0.2,-0.2 0,0 0,0 -0.1,0 -13.7,3.8 -25.1,9.4 -37.9,16 -0.4,0.2 -0.6,0.5 -0.6,0.9 -0.2,2.7 -1.1,5.2 -2.7,7.5 -0.2,0.2 -0.1,0.5 0.1,0.8 0.1,0 0.3,0.2 0.5,0.2"
   id="path94" />
	<path
   vector-effect="non-scaling-stroke"
   class="st3"
   d="m 448.2,305.6 c -12.7,-12.4 -25.3,-25 -37.7,-37.7 -0.3,-0.3 -0.5,-0.3 -0.5,0.2 l -0.3,100.7 c 0,0.5 0.3,0.8 0.8,0.8 l 35.3,-0.2 c 0.2,0 0.5,-0.1 0.6,-0.3 2.5,-3.1 6,-7.3 6,-11.4 0.2,-15.3 0.3,-30.7 0.3,-46 0.1,-2.7 -3,-4.6 -4.5,-6.1"
   id="path96" />
	<path
   vector-effect="non-scaling-stroke"
   class="st3"
   d="m 459.7,362 c 3.3,1.1 5.3,3.4 6,6.7 0.1,0.5 0.6,0.8 1.1,0.8 l 42.6,-0.2 c 0.3,0 0.6,-0.3 0.6,-0.6 0,-0.1 0,-0.2 -0.1,-0.3 -1,-1.4 -2,-3 -3.2,-4.2 -15.9,-15.6 -31.7,-31.5 -47.4,-47.6 -0.7,-0.7 -1,-0.6 -1,0.4 l 0.1,43 c -0.1,1 0.4,1.7 1.3,2"
   id="path98" />
	<path
   vector-effect="non-scaling-stroke"
   class="st3"
   d="m 321.7,380 c 26.1,26.9 53.5,53.3 81.1,80.9 0.7,0.7 1.1,0.6 1.2,-0.4 0.2,-3.3 0.3,-7 0.4,-11 0.1,-24.6 0,-49.3 -0.2,-73.9 0,-0.4 -0.2,-0.6 -0.6,-0.6 l -19.5,0.4 c -0.3,0 -0.6,0.1 -0.8,0.4 -6.4,8.3 -10.9,6.3 -17.4,-0.3 -0.3,-0.3 -0.6,-0.4 -1,-0.4 h -44.5 c -1.1,0 -1.5,0.5 -1,1.6 0.3,0.9 1.1,2.1 2.3,3.3"
   id="path100" />
	<path
   vector-effect="non-scaling-stroke"
   class="st3"
   d="m 410.5,397.2 c 11.2,11.2 23,22 33.5,33.8 0.1,0.1 0.3,0.2 0.5,0 0.1,0 0.1,-0.1 0.1,-0.2 1.8,-7.7 11.9,-9.3 15.5,-2.3 2.4,4.6 0.1,9.2 -4.2,11.7 -0.4,0.2 -0.5,0.5 -0.1,0.9 l 23.8,23.9 c 0.5,0.5 0.7,0.4 0.7,-0.3 l -0.1,-89 c 0,-0.4 -0.3,-0.7 -0.7,-0.7 0,0 0,0 0,0 l -13.2,0.3 c -0.4,0 -0.8,0.2 -1,0.5 -6.4,8.9 -12.4,5.6 -18.6,-0.5 -0.2,-0.2 -0.4,-0.3 -0.7,-0.3 l -35.7,0.3 c -0.3,0 -0.4,0.1 -0.4,0.4 l 0.3,20.5 c -0.1,0.4 0,0.7 0.3,1"
   id="path102" />
	<path
   vector-effect="non-scaling-stroke"
   class="st3"
   d="m 509.6,375.8 c 0,-0.4 -0.3,-0.7 -0.7,-0.7 v 0 h -22.2 c -0.4,0 -0.7,0.3 -0.7,0.7 v 0 96.9 c 0,0.4 0.3,0.7 0.7,0.7 v 0 h 22.2 c 0.4,0 0.7,-0.3 0.7,-0.7 v -96.9"
   id="path104" />
	<path
   vector-effect="non-scaling-stroke"
   class="st3"
   d="m 449.5,443.7 c -12.9,-12 -22.8,-21.5 -39.1,-38.6 -0.3,-0.3 -0.5,-0.3 -0.6,0.2 -0.4,3.1 0.2,7 0.2,9.1 -0.1,16.3 -0.2,32.6 -0.3,48.8 0,8.8 5,10.3 12.9,10.3 9.7,0 19.3,-0.1 28.8,-0.4 0.4,0 0.8,-0.4 0.8,-0.8 -0.2,-7.9 -0.3,-15.8 -0.3,-23.9 0.1,-2.1 -0.9,-3.3 -2.4,-4.7"
   id="path106" />
	<path
   vector-effect="non-scaling-stroke"
   class="st3"
   d="m 458,473.2 20.1,0.4 c 0.3,0 0.6,-0.3 0.6,-0.6 0,-0.2 -0.1,-0.3 -0.2,-0.4 l -20.8,-21.4 c -0.1,-0.1 -0.2,-0.1 -0.2,0.1 l 0.1,21.5 c 0.1,0.2 0.2,0.4 0.4,0.4"
   id="path108" />
	<path
   vector-effect="non-scaling-stroke"
   class="st0"
   d="m 663.1,475.9 c 9.4,6.6 19.4,7.5 30,2.7 2.6,-1.2 11,-6 8.3,-9.9 -0.7,-1 -1.6,-1.6 -2.8,-1.7 -0.3,0 -0.6,0.1 -0.9,0.3 -9.8,9.3 -25.1,10.8 -34.7,0.4 -1,-1 -2.5,-1.1 -3.6,-0.1 -3.5,3.2 0.6,6.1 3.7,8.3"
   id="path110" />
	<path
   vector-effect="non-scaling-stroke"
   class="st3"
   d="m 509.5,479.5 c 0,-0.3 -0.3,-0.6 -0.6,-0.6 v 0 l -22.4,0.1 c -0.3,0 -0.6,0.3 -0.6,0.6 v 0 l 0.2,39.3 c 0,0.3 0.3,0.6 0.6,0.6 l 22.4,-0.1 c 0.3,0 0.6,-0.3 0.6,-0.6 v 0 l -0.2,-39.3"
   id="path112" />
	<path
   vector-effect="non-scaling-stroke"
   class="st1"
   d="m 322.2,475.1 c 7.8,6.6 16.6,8.4 26.3,5.6 4.6,-1.4 12.4,-5.2 13.8,-10 0.1,-0.3 0,-0.7 -0.3,-0.9 l -2.3,-1.9 c -0.3,-0.3 -0.7,-0.3 -1,0 -11.4,10.6 -24.7,9.6 -36.1,-0.3 -0.3,-0.2 -0.5,-0.3 -0.8,-0.1 -1.3,0.6 -2.2,1.5 -2.7,2.8 -0.1,0.3 -0.1,0.7 0,1 0.6,1.3 1.6,2.5 3.1,3.8"
   id="path114" />
	<path
   vector-effect="non-scaling-stroke"
   class="st0"
   d="m 563.8,485.6 c 1.9,0.6 3.4,1.7 4.6,3.2 0.3,0.4 0.7,0.5 1.1,0.1 17.6,-13.7 33.5,-29.1 47.8,-46.2 0.5,-0.6 0.6,-1.5 0.1,-2.2 -2.7,-4.3 -3.8,-8.9 -3.2,-14 0,-0.3 -0.1,-0.5 -0.4,-0.6 -14.9,-3.4 -29.9,-6.5 -44.9,-9.5 -2.8,-0.6 -9.1,-2.6 -8.9,2.5 0.9,21.9 1.8,43.6 2.8,65.3 0,0.7 0.4,1.2 1,1.4"
   id="path116" />
</g>
<path
   class="st11"
   d="m 357.2884,2.2174958 c 0,-0.7 -0.1,-1.1 -0.1,-1.1 -0.7,0.1 -1.2,0.7 -1.2,1.4 V 39.017496 c 0,0.3 -0.2,0.5 -0.5,0.5 -14.9,0.5 -25.1,1.1 -30.7,1.8 -118.2,14.1 -228.000004,106.200004 -208.1,236.200004 0.7,4.3 1.2,8.7 1.7,13 0.6,6.1 -4.4,15.6 -7.2,20.4 -11.900004,20.4 -25.800004,43 -41.800004,68 -3.5,5.5 -7.2,9.9 -7.3,16.2 -0.1,6.1 2.7,10.9 8.4,14.7 4.7,3 9.5,5.2 14.3,6.8 5.9,1.9 11,4 15.300004,6.3 0.8,3 1.1,5.9 0.8,8.7 -1.000004,8.5 -9.400004,14.2 -10.400004,22.7 -0.8,6.9 2.9,11.2 7.7,17.3 0.2,0.3 0.2,0.6 0.1,0.9 -3.8,5.9 -6.3,9.7 -6.8,16.9 0,0.4 -0.2,0.6 -0.6,0.6 -22.4,0 -44.6,0.1 -66.4,0.2 -1.4,0 -2.1,0.2 -2,0.6 -2.1,-0.2 -3.4,-1.2 -4,-3 -10.3999997,-32.8 -16.3999997,-65.9 -17.99999966,-99.3 -2.10000004,-44.5 2.49999996,-90.5 15.19999966,-133.5 29.4,-99.5 107.000004,-183.200004 201.400004,-224.400004 41.1,-18 84.1,-28.1000002 129,-30.50000025 4,-0.2 7.9,0.1 11.8,1.10000005 0.1,0.2 0,0.5 -0.6,1 z"
   id="path120" />
<path
   class="st11"
   d="m 697.1884,490.1175 h -71.6 c -0.3,0 -0.6,-0.2 -0.6,-0.6 -0.1,-6.7 -2.7,-11 -6.7,-17.3 -0.2,-0.3 -0.2,-0.6 0.1,-0.8 20.9,-20.3 -5.8,-26.3 -2.6,-44.8 0.6,-3.3 2.1,-5.4 4.6,-6.2 6.3,-2 12.4,-4.4 18.5,-7 10.1,-4.4 18.2,-10.3 15.2,-22.1 -0.7,-2.6 -2.8,-6.7 -6.5,-12.4 -13.7,-21.5 -27.1,-43.1 -40.2,-65 -4.6,-7.7 -9.5,-16.3 -8.4,-25.5 1.8,-15.2 2.8,-24.7 3,-28.6 2.8,-47.2 -9.9,-89.1 -38,-125.6 -47.4,-61.700004 -126.3,-93.700004 -203.1,-94.600004 -0.6,0 -0.9,-0.3 -0.9,-0.9 l -0.2,-35.7000002 c 0.4,-0.1 0.2,-0.8 -0.6,-2.20000005 4.2,-0.6 9.4,-0.7 15.6,-0.3 75.4,4.50000005 145.3,31.40000025 204.5,77.50000025 5.3,4.1 10.4,8.4 15.3,12.8 53.3,47.900004 92.4,109.100004 110.3,178.800004 6.7,25.9 10.6,53.9 11.7,84.1 1.7,47 -5.1,91.7 -19.4,136.4 z"
   id="path122" />
<path
   class="st12"
   d="m 357.2884,2.2174958 c 0.4,0.5 0.9,0.7 1.6,0.5 0.5,0 0.8,0.1 0.8,0.3 l 0.2,35.7000002 c 0,0.6 0.3,0.9 0.9,0.9 76.8,0.9 155.7,32.9 203.2,94.600004 28.1,36.5 40.7,78.3 38,125.6 -0.2,3.9 -1.2,13.4 -3,28.6 -1.1,9.2 3.8,17.8 8.4,25.5 13.1,21.9 26.5,43.5 40.2,65 3.6,5.7 5.8,9.8 6.5,12.4 3,11.8 -5.1,17.6 -15.2,22.1 -6.1,2.7 -12.2,5 -18.5,7 -2.5,0.8 -4,2.9 -4.6,6.2 -3.2,18.5 23.5,24.5 2.6,44.8 -0.3,0.2 -0.3,0.5 -0.1,0.8 4,6.3 6.6,10.6 6.7,17.3 0,0.3 0.3,0.6 0.6,0.6 h 71.6 c -1,1.1 -1.6,2.3 -1.7,3.8 l -70.1,0.1 c -0.4,0 -0.6,0.2 -0.6,0.6 -1,7.5 -4.6,13.2 -10.7,17.1 -3.1,2 -4,3.4 -4.6,6.9 -0.8,4.5 -1.1,8.8 -0.9,12.8 0.3,7 4.7,13.1 5,19.8 0.6,11.1 -7.5,21.3 -17.7,24.7 -2.9,1 -7.2,1.5 -13,1.5 -23.4,0.1 -46.7,0.2 -70.1,0.1 -16.7,0 -29.2,1.9 -41.3,12.8 -18.7,16.7 -28.1,42 -28.4,67 -0.2,20.9 -0.2,41.7 0,62.6 0,0.2 -0.1,0.4 -0.4,0.5 -0.1,0 -0.2,0 -0.4,-0.2 -2.6,0.6 -5,1.8 -7.5,2.3 -21.6,4.7 -43.6,7.3 -66.2,7.8 -0.5,-4 -0.6,-8.1 -0.3,-12.1 0.8,-12 1.1,-24.2 0.8,-36.2 -0.3,-12.3 0.3,-25.5 0.1,-37 -0.2,-17.3 0,-34.6 -0.3,-52 -0.1,-3 -1,-4.9 -4,-5.3 -0.9,-0.1 -1.4,-0.3 -1.7,-0.6 -0.6,-0.6 -0.7,-1.3 -0.3,-1.9 0.1,-0.3 0.2,-0.6 0,-0.9 -0.9,-2.2 -1.2,-4.3 -0.8,-6.6 0.5,-2.6 0,-4.9 1.1,-7.4 0.1,-0.3 0.3,-0.5 0.6,-0.7 1.7,-0.9 2.1,-2.2 1.2,-4 -0.1,-0.3 0,-0.6 0.2,-0.8 0.7,-0.4 1.5,-0.5 2.2,0 0.4,0.3 1,0.1 1.3,-0.3 0.1,-0.1 0.1,-0.3 0.1,-0.5 l 0.1,-6.7 c 0,-0.5 -0.4,-0.9 -0.8,-0.9 -0.3,0 -0.7,0.2 -0.8,0.5 -0.6,1.3 -1.5,1.6 -2.9,0.9 -0.3,-0.1 -0.4,-0.4 -0.4,-0.7 l 0.2,-3.6 c 0,-0.3 -0.1,-0.6 -0.3,-0.9 l -1.2,-1.9 c -0.2,-0.3 -0.3,-0.6 -0.2,-0.9 l 0.2,-9.6 c 0,-1 0.8,-1.9 1.9,-2.1 l 1.9,-0.3 c 0.6,-0.1 1,-0.6 0.9,-1.2 0,-0.3 -0.2,-0.6 -0.5,-0.8 -4.5,-2.9 0.9,-6.1 2.7,-8.3 0.2,-0.3 0.3,-0.6 0.3,-0.9 0.2,-40.2 0,-80.4 0.1,-120.6 0,-7.9 -2.4,-17.3 3.8,-23.9 1.8,-1.9 4.1,-3.1 6.9,-3.4 0.3,0 0.6,-0.2 0.9,-0.3 1.5,-1 3.2,-0.6 4.5,-0.8 7,-1.1 13.4,1.9 20.2,3.5 0.2,0 0.3,0 0.5,-0.1 0.2,-0.2 0.4,-0.2 0.6,-0.2 3,0.4 6,0.3 9,-0.2 0.1,0 0.1,-0.1 0.1,-0.1 0,0 0,-0.2 0,-0.3 0,-0.1 0,-0.2 0.2,-0.2 2.1,-0.2 3.9,-1.1 5.3,-2.7 0.1,-0.1 0.2,-0.1 0.2,-0.1 l 0.2,0.3 c 0.1,0.1 0.2,0.1 0.2,0 6.1,-6.1 7.2,-12 8.5,-20.2 0.8,-4.8 3.5,-8.3 8.3,-10.3 0.1,0 0.1,0 0.1,0.1 0,0 0,0.1 0,0.1 -0.1,0.2 -0.2,0.3 -0.1,0.3 0.1,0.2 0.3,0.2 0.5,0.1 4.7,-2.8 7.4,-6.6 11.8,-9.6 4.8,-3.3 7.6,-8.2 10.6,-11.8 2.9,-3.4 6.4,-8.7 10.5,-10.4 4.9,-2.1 9.1,-1.5 13.6,-3 1.5,-0.5 3.3,-1.3 5.3,-2.4 4.7,-2.6 7.5,-6.9 8.6,-12.9 0.1,-0.3 0.2,-0.4 0.5,-0.5 0.4,0 0.9,-1.3 1.6,-3.7 1.6,-6 15.1,-5.2 19.6,-4.6 2.8,0.4 4.9,-1.1 7,-1.2 3.2,-0.1 6.2,0.8 9.3,0.4 7.2,-1.1 14.4,-1.9 21.7,-2.5 10.3,-0.8 11,-4.5 10.3,-14.1 -0.1,-1.2 -0.5,-3.1 -1.2,-5.7 -0.9,-3.1 -1.3,-6.6 -1.3,-10.5 0,-1.2 -0.5,-2.2 -1.6,-3 -0.2,-0.2 -0.4,-0.4 -0.5,-0.7 -0.3,-0.8 -0.8,-1 -1.5,-0.8 -6.2,-36.6 -21.8,-68.5 -46.9,-95.6 -14.4,-15.6 -26,-24.6 -40.6,-36 -0.3,-0.2 -0.4,-0.5 -0.3,-0.8 3.5,-15.5 -12.4,-26.100004 -24.9,-15.7 -0.3,0.2 -0.6,0.3 -1,0.1 -28.2,-14.800004 -58.3,-23.000004 -90.2,-24.400004 -0.4,0 -0.6,0.2 -0.6,0.6 l -0.2,5.4 c -0.3,16.100004 -0.5,32.100004 -0.3,48.000004 0,1.1 0.3,2 0.6,3 l 0.4,6.6 c 0,0.3 0.1,0.5 0.4,0.7 l 43.6,31.7 c 0.3,0.2 0.4,0.5 0.5,0.8 1.2,9.7 6.7,14.8 16.5,15.3 0.5,0 0.8,0.3 1,0.7 l 20.1,40 c 0.1,0.3 0.1,0.6 -0.1,0.8 -5.8,5.3 -6.8,11.6 -3.1,18.7 -1.5,1.9 -0.8,4.1 2.3,6.6 0.3,0.2 0.4,0.5 0.5,0.8 0.7,3.3 2.3,4.7 5.5,6.2 3,1.4 5.3,3.3 8.9,3.5 0.1,0 0.2,0.1 0.3,0.1 l 0.3,0.3 c 0.2,0.2 0.5,0.4 0.8,0.4 h 10.3 c 0.2,0 0.4,-0.2 0.4,-0.4 0,-0.1 0,-0.1 0,-0.2 -0.1,-0.1 -0.1,-0.2 -0.2,-0.3 0,-0.1 0,-0.2 0.1,-0.3 3.2,-1.7 2.5,-7.8 3.6,-11.2 1.2,-4 1.2,-7.7 2.2,-11.7 0.1,-0.3 0.2,-0.5 0.4,-0.7 l 8,-7 c 0,0 0,-0.1 0,-0.1 -0.1,-0.1 -0.2,-0.1 -0.2,-0.2 -0.1,-0.1 -0.1,-0.3 0,-0.4 0,0 0,0 0.1,-0.1 4.1,-2.3 7.7,-5.2 10.8,-8.7 0,0 0.1,0 0.1,0 0,0 0,0 0,0 0,0.1 0.1,0.2 0.1,0.2 0.1,0.2 0.2,0.2 0.3,0.1 5.5,-4 8.1,-10.1 16.2,-8.1 2.9,0.7 7,0.8 12,0.3 8.7,-0.9 9.6,-8.1 15.4,-12.6 1.5,-1.1 3.1,-1 5,0.4 0.2,0.1 0.3,0.1 0.5,0 l 0.4,-0.4 c 0.1,-0.1 0.3,-0.1 0.5,0 0,0 0.1,0.1 0.1,0.1 0.3,1 0.9,1.5 1.7,1.5 8.4,19 13.1,38.8 14.1,59.5 0,0.4 -0.2,0.6 -0.5,0.6 l -71,2.5 c -0.3,0 -0.7,-0.1 -1,-0.3 -7.6,-5.1 -15.1,-4.8 -22.4,0.7 -0.5,0.4 -1.1,0.5 -1.7,0.4 l -51.9,-10.8 c -0.2,0 -0.3,-0.2 -0.3,-0.3 -0.3,-6 -4,-11.2 -10,-12.3 -4.4,-0.8 -7.6,1.1 -11.2,3.6 -0.3,0.2 -0.5,0.2 -0.8,-0.1 l -28.2,-29.4 c -0.3,-0.3 -0.3,-0.8 0,-1.1 0,0 0,0 0,0 0.4,-0.3 0.4,-0.8 0,-1.3 -0.2,-0.2 -0.3,-0.2 -0.3,0.1 l -0.5,10.3 c -0.8,15.3 -0.6,30.9 0.5,46.8 l -0.1,7 c 0,0.2 0.2,0.4 0.4,0.4 0.1,0 0.1,0 0.2,-0.1 l 27,-16.6 c 0.3,-0.2 0.6,-0.1 0.9,0.2 2.6,3.5 6.1,5 10.5,4.4 0.5,-0.1 0.7,0.1 0.7,0.6 l 2.7,63.1 c 0,0.4 -0.2,0.7 -0.6,0.8 -9.1,1.9 -13.4,7.6 -13.1,17 0,0.5 -0.2,0.8 -0.7,1 -9,3.6 -18.2,6.3 -27.7,8.2 -0.4,0.1 -0.5,0.3 -0.5,0.7 l -0.1,4.4 c -1.2,8.9 -0.8,17.9 -1,26.9 -0.1,7.3 -0.2,13.2 -0.2,17.5 0.1,67.1 0.1,134.1 -0.1,201.2 -0.1,23.6 -0.2,47.4 0.1,71 0.2,15 0.3,29.8 0.2,44.6 -1.6,0.5 -2.8,0.6 -3.4,0.1 v -352.6 c 0,-0.4 -0.2,-0.5 -0.5,-0.5 -88,0 -176.1,0 -264.100004,0.2 -5.1,0 -9.9,0.2 -14.4,0.5 -1.1,0.1 -2.1,0.6 -2.7,1.5 -2.8,4 -6.4,8.7 -7.8,12.9 -1.9,6.2 -0.5,12.2 4.2,18 -5.7,-3.7 -8.5,-8.6 -8.4,-14.7 0.1,-6.3 3.8,-10.7 7.3,-16.2 16,-25 29.9,-47.6 41.800004,-68 2.8,-4.8 7.8,-14.3 7.2,-20.4 -0.4,-4.4 -1,-8.7 -1.7,-13 -19.900004,-130 89.9,-222.100004 208.1,-236.200004 5.5,-0.7 15.8,-1.2 30.7,-1.8 0.3,0 0.5,-0.2 0.5,-0.5 V 2.6174958 c 0,-0.7 0.5,-1.3 1.2,-1.4 0.3,-0.1 0.4,0.3 0.4,1 z m -117.5,110.1000042 1.4,2.8 c 0.2,0.4 0.1,0.9 -0.3,1.2 -35.2,26.5 -62.2,57.7 -80.3,98.6 -0.2,0.4 -0.1,0.7 0.2,1 1.8,1.6 3.2,3.5 4.1,5.7 0.1,0.3 0.4,0.5 0.8,0.5 l 45.1,-0.2 c 0.4,0 0.7,-0.2 0.9,-0.5 5.3,-7.9 13,-9.2 17.8,0.1 0.1,0.3 0.4,0.5 0.8,0.5 l 20,0.1 c 0.2,0 0.3,-0.1 0.3,-0.3 0,0 0,0 0,0 l -0.1,-104.5 c 0,-0.5 -0.2,-0.7 -0.8,-0.7 -20,0.8 -9,-29.600004 6.7,-16.5 0.3,0.2 0.5,0.2 0.8,0.1 28.9,-17.200004 64.2,-26.100004 97.7,-27.200004 0.4,0 0.6,-0.2 0.6,-0.6 l 0.4,-27.8 c 0,-0.3 -0.2,-0.5 -0.5,-0.5 -10.7,0 -19.5,0.4 -26.4,1.2 -8.8,1 -17.6,1.8 -26.1,3.8 -8.9,2 -16,3.8 -21.2,5.4 -70.1,20.5 -133.3,68.700004 -155.7,140.600004 -8.9,28.6 -9.4,59 -5.1,88.4 1.4,9.7 0.4,16.7 -4.3,24.9 -12.2,21.5 -24.900004,42.6 -38.200004,63.3 -0.2,0.3 -0.1,0.4 0.2,0.4 H 325.8884 c 0.3,0 0.5,-0.2 0.5,-0.5 l -0.2,-39.4 c 0,-0.3 -0.3,-0.6 -0.6,-0.6 v 0 c -20.5,-0.1 -41,0 -61.6,0.2 -3.1,0 -5.2,-0.5 -6.2,-1.5 -32.5,-32.2 -64.9,-64.4 -97.5,-96.5 -0.2,-0.2 -0.5,-0.3 -0.8,-0.1 -13.8,6.4 -21.6,-16.5 -4.4,-19.4 0.3,-0.1 0.6,-0.3 0.7,-0.6 17.3,-39.8 46.4,-77.2 82.6,-101.6 0.8,-0.4 1.1,-0.3 1.4,0.2 z m 92.3,75.3 c 0,0.1 0,0.2 0.1,0.2 l 22.9,23.2 c 0.1,0.1 0.4,0.1 0.5,0 0.1,-0.1 0.1,-0.2 0.1,-0.2 V 78.817496 c 0,-0.2 -0.2,-0.4 -0.3,-0.4 0,0 0,0 0,0 l -23,1.7 c -0.2,0 -0.3,0.2 -0.3,0.4 z m -27.6,-27.9 c 0,0.1 0.1,0.3 0.2,0.4 l 20.9,20.8 c 0.2,0.2 0.6,0.2 0.8,0 0.1,-0.1 0.2,-0.2 0.2,-0.4 l -0.1,-98.600004 c 0,-0.3 -0.2,-0.5 -0.5,-0.5 0,0 -0.1,0 -0.1,0 l -21.2,4.5 c -0.3,0.1 -0.4,0.3 -0.4,0.5 z m -46.6,-46.1 c 13,12.6 25.9,25.6 38.8,39 1.3,1.4 2,1.1 2,-0.8 l 0.1,-63.400004 c 0,-0.1 -0.1,-0.2 -0.2,-0.2 0,0 0,0 -0.1,0 -13.7,3.8 -25.1,9.4 -37.9,16.000004 -0.4,0.2 -0.6,0.5 -0.6,0.9 -0.2,2.7 -1.1,5.2 -2.7,7.5 -0.2,0.2 -0.1,0.5 0.1,0.8 0.1,0 0.3,0.2 0.5,0.2 z m 36.5,44.5 c -12.7,-12.4 -25.3,-25 -37.7,-37.7 -0.3,-0.3 -0.5,-0.3 -0.5,0.2 l -0.3,100.7 c 0,0.5 0.3,0.8 0.8,0.8 l 35.3,-0.2 c 0.2,0 0.5,-0.1 0.6,-0.3 2.5,-3.1 6,-7.3 6,-11.4 0.2,-15.3 0.3,-30.7 0.3,-46 0.1,-2.7 -3,-4.6 -4.5,-6.1 z m 11.5,56.4 c 3.3,1.1 5.3,3.4 6,6.7 0.1,0.5 0.6,0.8 1.1,0.8 l 42.6,-0.2 c 0.3,0 0.6,-0.3 0.6,-0.6 0,-0.1 0,-0.2 -0.1,-0.3 -1,-1.4 -2,-3 -3.2,-4.2 -15.9,-15.6 -31.7,-31.5 -47.4,-47.6 -0.7,-0.7 -1,-0.6 -1,0.4 l 0.1,43 c -0.1,1 0.4,1.7 1.3,2 z m -138,18 c 26.1,26.9 53.5,53.3 81.1,80.9 0.7,0.7 1.1,0.6 1.2,-0.4 0.2,-3.3 0.3,-7 0.4,-11 0.1,-24.6 0,-49.3 -0.2,-73.9 0,-0.4 -0.2,-0.6 -0.6,-0.6 l -19.5,0.4 c -0.3,0 -0.6,0.1 -0.8,0.4 -6.4,8.3 -10.9,6.3 -17.4,-0.3 -0.3,-0.3 -0.6,-0.4 -1,-0.4 h -44.5 c -1.1,0 -1.5,0.5 -1,1.6 0.3,0.9 1.1,2.1 2.3,3.3 z m 88.8,17.2 c 11.2,11.2 23,22 33.5,33.8 0.1,0.1 0.3,0.2 0.5,0 0.1,0 0.1,-0.1 0.1,-0.2 1.8,-7.7 11.9,-9.3 15.5,-2.3 2.4,4.6 0.1,9.2 -4.2,11.7 -0.4,0.2 -0.5,0.5 -0.1,0.9 l 23.8,23.9 c 0.5,0.5 0.7,0.4 0.7,-0.3 l -0.1,-89 c 0,-0.4 -0.3,-0.7 -0.7,-0.7 0,0 0,0 0,0 l -13.2,0.3 c -0.4,0 -0.8,0.2 -1,0.5 -6.4,8.9 -12.4,5.6 -18.6,-0.5 -0.2,-0.2 -0.4,-0.3 -0.7,-0.3 l -35.7,0.3 c -0.3,0 -0.4,0.1 -0.4,0.4 l 0.3,20.5 c -0.1,0.4 0,0.7 0.3,1 z m 99.1,-21.4 c 0,-0.4 -0.3,-0.7 -0.7,-0.7 v 0 h -22.2 c -0.4,0 -0.7,0.3 -0.7,0.7 v 0 96.9 c 0,0.4 0.3,0.7 0.7,0.7 v 0 h 22.2 c 0.4,0 0.7,-0.3 0.7,-0.7 z m -60.1,67.9 c -12.9,-12 -22.8,-21.5 -39.1,-38.6 -0.3,-0.3 -0.5,-0.3 -0.6,0.2 -0.4,3.1 0.2,7 0.2,9.1 -0.1,16.3 -0.2,32.6 -0.3,48.8 0,8.8 5,10.3 12.9,10.3 9.7,0 19.3,-0.1 28.8,-0.4 0.4,0 0.8,-0.4 0.8,-0.8 -0.2,-7.9 -0.3,-15.8 -0.3,-23.9 0.1,-2.1 -0.9,-3.3 -2.4,-4.7 z m 8.5,29.5 20.1,0.4 c 0.3,0 0.6,-0.3 0.6,-0.6 0,-0.2 -0.1,-0.3 -0.2,-0.4 l -20.8,-21.4 c -0.1,-0.1 -0.2,-0.1 -0.2,0.1 l 0.1,21.5 c 0.1,0.2 0.2,0.4 0.4,0.4 z m 205.1,2.7 c 9.4,6.6 19.4,7.5 30,2.7 2.6,-1.2 11,-6 8.3,-9.9 -0.7,-1 -1.6,-1.6 -2.8,-1.7 -0.3,0 -0.6,0.1 -0.9,0.3 -9.8,9.3 -25.1,10.8 -34.7,0.4 -1,-1 -2.5,-1.1 -3.6,-0.1 -3.5,3.2 0.6,6.1 3.7,8.3 z m -153.6,3.6 c 0,-0.3 -0.3,-0.6 -0.6,-0.6 v 0 l -22.4,0.1 c -0.3,0 -0.6,0.3 -0.6,0.6 v 0 l 0.2,39.3 c 0,0.3 0.3,0.6 0.6,0.6 l 22.4,-0.1 c 0.3,0 0.6,-0.3 0.6,-0.6 v 0 z"
   id="path124" />
<path
   class="st13"
   d="m 359.0884,0.81749575 c 0.8,1.40000005 1,2.10000005 0.6,2.20000005 0,-0.2 -0.3,-0.3 -0.8,-0.3 z"
   id="path126" />
<path
   class="st14"
   d="m 239.7884,112.3175 c -0.3,-0.5 -0.6,-0.6 -1.1,-0.3 -36.1,24.4 -65.2,61.8 -82.6,101.6 -0.1,0.3 -0.4,0.5 -0.7,0.6 -17.3,3 -9.4,25.8 4.4,19.4 0.3,-0.1 0.6,-0.1 0.8,0.1 32.5,32.2 65,64.3 97.5,96.5 1,1 3.1,1.5 6.2,1.5 20.6,-0.2 41.1,-0.3 61.6,-0.2 0.3,0 0.6,0.3 0.6,0.6 v 0 l 0.2,39.4 c 0,0.3 -0.2,0.5 -0.5,0.5 H 78.888396 c -0.3,0 -0.4,-0.1 -0.2,-0.4 13.3,-20.7 26.000004,-41.8 38.200004,-63.3 4.6,-8.2 5.7,-15.1 4.3,-24.9 -4.2,-29.4 -3.8,-59.8 5.1,-88.4 22.4,-72 85.6,-120.100004 155.7,-140.600004 5.2,-1.5 12.3,-3.3 21.2,-5.4 8.5,-2 17.3,-2.7 26.1,-3.8 6.8,-0.8 15.6,-1.2 26.4,-1.2 0.3,0 0.5,0.2 0.5,0.5 l -0.4,27.8 c 0,0.4 -0.2,0.6 -0.6,0.6 -33.5,1.1 -68.8,10 -97.7,27.200004 -0.3,0.2 -0.5,0.1 -0.8,-0.1 -15.6,-13.000004 -26.7,17.3 -6.7,16.5 0.5,0 0.8,0.2 0.8,0.7 l 0.1,104.5 c 0,0.2 -0.1,0.3 -0.3,0.3 0,0 0,0 0,0 l -20,-0.1 c -0.3,0 -0.6,-0.2 -0.8,-0.5 -4.9,-9.3 -12.5,-8 -17.8,-0.1 -0.2,0.3 -0.5,0.5 -0.9,0.5 l -45.1,0.2 c -0.3,0 -0.6,-0.2 -0.8,-0.5 -1,-2.2 -2.3,-4.1 -4.1,-5.7 -0.3,-0.3 -0.4,-0.6 -0.2,-1 18.1,-40.9 45.1,-72 80.3,-98.6 0.4,-0.3 0.5,-0.8 0.3,-1.2 z m -71.4,215.3 c 7.8,6.6 16.6,8.4 26.3,5.6 4.6,-1.4 12.4,-5.2 13.8,-10 0.1,-0.3 0,-0.7 -0.3,-0.9 l -2.3,-1.9 c -0.3,-0.3 -0.7,-0.3 -1,0 -11.4,10.6 -24.7,9.6 -36.1,-0.3 -0.3,-0.2 -0.5,-0.3 -0.8,-0.1 -1.3,0.6 -2.2,1.5 -2.7,2.8 -0.1,0.3 -0.1,0.7 0,1 0.6,1.3 1.6,2.5 3.1,3.8 z"
   id="path128" />
<path
   class="st11"
   d="m 564.1884,250.8175 1.5,23.1 c 0,0.7 -0.3,1.1 -1,1.1 l -73.4,2.6 c -0.4,0 -0.5,0.2 -0.5,0.6 1.9,12.6 -7.5,21.4 -20.1,19.3 -0.3,-0.1 -0.6,0 -0.8,0.3 -9.6,10.7 -18.8,21.5 -29.7,31.6 -6.6,6.1 -14.2,11.8 -21.6,17.4 -0.3,0.2 -0.4,0.5 -0.3,0.8 1.9,9.7 -1.6,15.8 -10.4,18.4 -6,1.8 -11.3,0.3 -15.7,-4.6 -0.2,-0.3 -0.5,-0.3 -0.9,-0.2 -9.9,3.9 -20,6.9 -30.5,9 -0.4,0.1 -0.6,-0.1 -0.7,-0.5 l -0.2,-0.9 0.1,-4.4 c 0,-0.4 0.2,-0.6 0.5,-0.7 9.5,-1.9 18.7,-4.7 27.7,-8.2 0.5,-0.2 0.7,-0.5 0.7,-1 -0.4,-9.4 4,-15.1 13.1,-17 0.4,-0.1 0.6,-0.3 0.6,-0.8 l -2.7,-63.1 c 0,-0.5 -0.3,-0.7 -0.7,-0.6 -4.4,0.5 -7.9,-1 -10.5,-4.4 -0.2,-0.3 -0.5,-0.4 -0.9,-0.2 l -27,16.6 c -0.2,0.1 -0.4,0.1 -0.6,-0.1 0,-0.1 -0.1,-0.1 -0.1,-0.2 l 0.1,-6.7 c 12.5,-7 20.5,-11.8 23.9,-14.4 2.4,-1.9 2.6,-3.8 0.6,-6 -6.7,-7.1 -13.3,-14.2 -19.9,-21.3 -1.5,-1.6 -3.6,-3.2 -5.1,-5.1 l 0.5,-10.3 c 0,-0.3 0.1,-0.3 0.3,-0.1 0.4,0.5 0.4,0.9 0,1.3 -0.3,0.3 -0.3,0.8 0,1.1 0,0 0,0 0,0 l 28.2,29.4 c 0.2,0.3 0.5,0.3 0.8,0.1 3.6,-2.4 6.8,-4.4 11.2,-3.6 6,1.1 9.7,6.3 10,12.3 0,0.2 0.1,0.3 0.3,0.3 l 51.9,10.8 c 0.6,0.1 1.2,0 1.7,-0.4 7.3,-5.6 14.7,-5.8 22.4,-0.7 0.3,0.2 0.6,0.3 1,0.3 l 71,-2.5 c 0.4,0 0.6,-0.2 0.5,-0.6 -0.9,-20.7 -5.6,-40.5 -14.1,-59.5 -15.1,-35 -41.8,-63.6 -73,-85 -0.3,-0.2 -0.6,-0.2 -0.8,0 -9.8,8.9 -24.1,1.8 -24.4,-10.9 0,-1.2 0.3,-2.9 0.2,-4.4 0,-0.3 -0.2,-0.6 -0.5,-0.8 -26.4,-14.500004 -57.4,-22.000004 -87.4,-23.600004 l 0.2,-5.4 c 0,-0.4 0.2,-0.6 0.6,-0.6 31.9,1.5 62,9.6 90.2,24.400004 0.3,0.2 0.7,0.1 1,-0.1 12.5,-10.400004 28.5,0.2 24.9,15.7 -0.1,0.3 0,0.6 0.3,0.8 14.5,11.4 26.2,20.4 40.6,36 25.1,27.1 40.7,59 46.9,95.6 z m -154.2,87.3 c 1.9,0.6 3.4,1.7 4.6,3.2 0.3,0.4 0.7,0.5 1.1,0.1 17.6,-13.7 33.5,-29.1 47.8,-46.2 0.5,-0.6 0.6,-1.5 0.1,-2.2 -2.7,-4.3 -3.8,-8.9 -3.2,-14 0,-0.3 -0.1,-0.5 -0.4,-0.6 -14.9,-3.4 -29.9,-6.5 -44.9,-9.5 -2.8,-0.6 -9.1,-2.6 -8.9,2.5 0.9,21.9 1.8,43.6 2.8,65.3 0,0.7 0.4,1.2 1,1.4 z"
   id="path130" />
<path
   class="st14"
   d="m 332.0884,187.6175 -0.1,-107.100004 c 0,-0.2 0.1,-0.3 0.3,-0.4 l 23,-1.7 c 0.2,0 0.4,0.1 0.4,0.3 0,0 0,0 0,0 V 210.7175 c 0,0.2 -0.2,0.3 -0.4,0.3 -0.1,0 -0.2,0 -0.2,-0.1 l -22.9,-23.1 c -0.1,-0.1 -0.1,-0.2 -0.1,-0.2 z"
   id="path132" />
<path
   class="st14"
   d="m 304.4884,159.7175 -0.4,-73.300004 c 0,-0.3 0.2,-0.5 0.4,-0.5 l 21.2,-4.5 c 0.3,-0.1 0.6,0.1 0.6,0.4 0,0 0,0.1 0,0.1 l 0.1,98.600004 c 0,0.3 -0.2,0.5 -0.5,0.5 -0.1,0 -0.3,-0.1 -0.4,-0.2 l -20.9,-20.8 c 0,0 -0.1,-0.1 -0.1,-0.3 z"
   id="path134" />
<path
   class="st15"
   d="m 359.4884,84.317496 c 30,1.6 61.1,9.1 87.4,23.600004 0.3,0.2 0.5,0.4 0.5,0.8 0.2,1.5 -0.2,3.2 -0.2,4.4 0.4,12.7 14.6,19.7 24.4,10.9 0.3,-0.2 0.5,-0.3 0.8,0 31.1,21.4 57.8,50 73,85 -0.8,0.1 -1.3,-0.4 -1.7,-1.5 -0.1,-0.2 -0.2,-0.3 -0.4,-0.2 0,0 -0.1,0 -0.1,0.1 l -0.4,0.4 c -0.1,0.1 -0.3,0.1 -0.5,0 -1.9,-1.4 -3.6,-1.5 -5,-0.4 -5.8,4.5 -6.8,11.7 -15.4,12.6 -5.1,0.5 -9.1,0.4 -12,-0.3 -8.1,-2 -10.7,4 -16.2,8.1 -0.2,0.1 -0.3,0.1 -0.3,-0.1 0,-0.1 -0.1,-0.2 -0.1,-0.2 0,0 0,0 -0.1,0 0,0 0,0 0,0 -3.1,3.5 -6.7,6.4 -10.8,8.7 -0.1,0.1 -0.2,0.2 -0.1,0.4 0,0 0,0.1 0.1,0.1 0.1,0.1 0.2,0.2 0.2,0.2 0,0 0,0.1 0,0.1 l -8,7 c -0.2,0.2 -0.3,0.4 -0.4,0.7 -1,3.9 -1,7.7 -2.2,11.7 -1.1,3.4 -0.4,9.5 -3.6,11.2 -0.1,0.1 -0.2,0.1 -0.1,0.3 0,0.1 0.1,0.2 0.2,0.3 0.1,0.2 0,0.5 -0.2,0.6 -0.1,0 -0.1,0 -0.2,0 h -10.3 c -0.3,0 -0.6,-0.1 -0.8,-0.4 l -0.3,-0.3 c -0.1,-0.1 -0.2,-0.1 -0.3,-0.1 -3.6,-0.2 -5.9,-2.1 -8.9,-3.5 -3.2,-1.5 -4.8,-2.9 -5.5,-6.2 -0.1,-0.3 -0.2,-0.6 -0.5,-0.8 -3.1,-2.4 -3.8,-4.6 -2.3,-6.6 10.1,13.3 28.3,2.3 24.4,-13.1 -0.2,-0.8 0.1,-1.6 0.7,-2.1 l 38.3,-30.4 c 0.5,-0.4 1.2,-0.4 1.7,0 14.8,10.4 33,-12.4 17.2,-24.6 l 0.8,-2.6 c 0.1,-0.3 0,-0.6 -0.2,-0.9 -1.5,-1.5 -2.9,-3.7 -4.2,-6.6 -2.4,-5.2 -7.6,-9 -12.1,-13.3 -1.5,-1.4 -2.7,-3.4 -4.5,-4.9 -1.2,-0.9 -2,-1.7 -2.4,-2.1 -4,-4 -8.3,-7.7 -12.9,-11 -0.3,-0.2 -0.6,-0.3 -0.9,-0.3 -2.8,0.1 -5.1,-1.3 -7.5,-1.3 -3.2,-0.1 -6.4,0 -9.6,0.2 -0.3,0 -0.6,0 -0.9,-0.2 -3.5,-1.7 -6,-1.1 -9.8,-4.3 -0.2,-0.1 -0.3,-0.3 -0.4,-0.6 l -0.8,-2.6 c -0.1,-0.3 -0.4,-0.6 -0.7,-0.6 -1.9,-0.3 -3.1,-0.6 -4.3,-2.2 -1.7,-2.3 -3.6,-4.4 -5.7,-6.3 -0.2,-0.2 -0.4,-0.5 -0.5,-0.8 l -0.4,-1.7 c -0.1,-0.3 -0.2,-0.6 -0.4,-0.9 l -2.1,-3.2 c -0.2,-0.2 -0.4,-0.4 -0.6,-0.5 -3.1,-1.6 -5.4,-4.6 -8.5,-5.7 -5.8,-2 -11.8,-3.5 -17.6,-5.8 -1.7,-0.7 -3.4,-1.3 -5.1,-1.8 -1,-0.3 -2.4,-0.6 -4.3,-0.800004 -1.5,-0.1 -2.9,-0.4 -4.3,-0.9 -3.5,-1.1 -5.5,-1.7 -6.1,-1.9 -4.4,-1 -8.2,-2.8 -12.6,-2.9 -3.1,-0.1 -6.3,0 -9.4,0.1 0.2,0.1 0.3,0 0.4,-0.1 0.1,-0.2 0.1,-0.3 -0.2,-0.2 -7.5,1.7 -8.2,21.200004 -7.7,27.600004 0.4,5.8 -0.2,11.7 0.1,17.6 l -5.9,-3.5 c -0.2,-1 -0.6,-1.9 -0.6,-3 -0.6,-16.3 -0.5,-32.3 -0.1,-48.400004 z"
   id="path136" />
<path
   class="st14"
   d="m 257.8884,113.6175 c -0.2,0 -0.4,-0.1 -0.6,-0.3 -0.2,-0.2 -0.2,-0.5 -0.1,-0.8 1.5,-2.3 2.4,-4.7 2.7,-7.5 0,-0.4 0.2,-0.7 0.6,-0.9 12.8,-6.600004 24.2,-12.200004 37.9,-16.000004 0.1,0 0.3,0 0.3,0.2 0,0 0,0 0,0.1 l -0.1,63.400004 c 0,1.9 -0.7,2.1 -2,0.8 -12.8,-13.4 -25.8,-26.4 -38.7,-39 z"
   id="path138" />
<path
   class="st12"
   d="m 521.3884,180.3175 c -13.5,-9 -28,3.9 -22.5,18.9 0.1,0.3 0,0.6 -0.2,0.8 l -39.5,31.5 c -0.3,0.3 -0.6,0.3 -0.9,0 -2.8,-2.2 -6.1,-3 -9.6,-2.2 -0.3,0.1 -0.5,0 -0.7,-0.3 l -19.8,-40.5 c -0.2,-0.3 -0.1,-0.6 0.2,-0.8 8.8,-6.2 9.9,-19.3 0.4,-25.4 -7.8,-5 -17.3,-2.1 -22.2,5.4 -0.2,0.3 -0.4,0.3 -0.7,0.1 l -40.3,-29.2 c -0.3,-5.9 0.3,-11.8 -0.1,-17.6 -0.5,-6.4 0.2,-25.900004 7.7,-27.600004 0.2,0 0.3,0 0.2,0.2 -0.1,0.2 -0.2,0.2 -0.4,0.1 3.1,-0.1 6.3,-0.1 9.4,-0.1 4.4,0.1 8.3,1.9 12.6,2.9 0.6,0.1 2.6,0.8 6.1,1.9 1.4,0.4 2.9,0.7 4.3,0.9 1.9,0.2 3.3,0.4 4.3,0.800004 1.7,0.6 3.4,1.2 5.1,1.8 5.7,2.3 11.7,3.8 17.6,5.8 3.1,1.1 5.5,4.1 8.5,5.7 0.2,0.1 0.4,0.3 0.6,0.5 l 2.1,3.2 c 0.2,0.3 0.3,0.6 0.4,0.9 l 0.4,1.7 c 0.1,0.3 0.2,0.6 0.5,0.8 2.1,1.9 4,4.1 5.7,6.3 1.2,1.6 2.5,1.9 4.3,2.2 0.3,0.1 0.6,0.3 0.7,0.6 l 0.8,2.6 c 0.1,0.2 0.2,0.4 0.4,0.6 3.8,3.2 6.3,2.6 9.8,4.3 0.3,0.1 0.6,0.2 0.9,0.2 3.2,-0.2 6.4,-0.2 9.6,-0.2 2.4,0 4.7,1.4 7.5,1.3 0.3,0 0.6,0.1 0.9,0.3 4.6,3.3 9,6.9 12.9,11 0.5,0.5 1.3,1.2 2.4,2.1 1.8,1.5 3.1,3.5 4.5,4.9 4.5,4.3 9.7,8.1 12.1,13.3 1.3,2.9 2.7,5.1 4.2,6.6 0.2,0.2 0.3,0.5 0.2,0.9 z"
   id="path140" />
<path
   class="st14"
   d="m 294.3884,158.1175 c 1.5,1.5 4.6,3.4 4.6,6.2 0,15.3 -0.1,30.6 -0.3,46 0,4.1 -3.5,8.3 -6,11.4 -0.1,0.2 -0.4,0.3 -0.6,0.3 l -35.3,0.2 c -0.5,0 -0.8,-0.3 -0.8,-0.8 l 0.3,-100.7 c 0,-0.4 0.2,-0.5 0.5,-0.2 12.3,12.6 24.9,25.1 37.6,37.6 z"
   id="path142" />
<path
   class="st11"
   d="m 365.6884,138.7175 40.3,29.2 c 0.3,0.2 0.5,0.2 0.7,-0.1 4.9,-7.5 14.4,-10.4 22.2,-5.4 9.5,6 8.4,19.2 -0.4,25.4 -0.3,0.2 -0.3,0.5 -0.2,0.8 l 19.7,40.5 c 0.1,0.3 0.4,0.4 0.7,0.3 3.6,-0.7 6.8,0 9.6,2.2 0.3,0.2 0.6,0.2 0.9,0 l 39.5,-31.5 c 0.2,-0.2 0.3,-0.5 0.2,-0.8 -5.5,-15 9,-27.9 22.5,-18.9 15.8,12.2 -2.4,35 -17.2,24.6 -0.5,-0.4 -1.2,-0.4 -1.7,0 l -38.3,30.4 c -0.6,0.5 -0.9,1.3 -0.7,2.1 3.9,15.4 -14.3,26.4 -24.4,13.1 -3.7,-7.1 -2.7,-13.4 3.1,-18.7 0.2,-0.2 0.3,-0.5 0.1,-0.8 l -20.1,-40 c -0.2,-0.4 -0.6,-0.7 -1,-0.7 -9.8,-0.5 -15.3,-5.6 -16.5,-15.3 0,-0.3 -0.2,-0.6 -0.5,-0.8 l -43.7,-31.8 c -0.2,-0.2 -0.4,-0.4 -0.4,-0.7 l -0.4,-6.6 z"
   id="path144" />
<path
   class="st14"
   d="m 305.8884,214.5175 c -1,-0.3 -1.4,-1 -1.4,-2 l -0.1,-43 c 0,-1 0.4,-1.2 1,-0.4 15.7,16.2 31.4,32 47.4,47.6 1.2,1.2 2.3,2.8 3.2,4.2 0.2,0.3 0.1,0.6 -0.1,0.8 -0.1,0.1 -0.2,0.1 -0.3,0.1 l -42.6,0.2 c -0.5,0 -1,-0.3 -1.1,-0.8 -0.7,-3.3 -2.7,-5.6 -6,-6.7 z"
   id="path146" />
<path
   class="st14"
   d="m 249.0884,313.4175 c -27.7,-27.6 -55,-54 -81.1,-80.9 -1.2,-1.2 -2,-2.4 -2.5,-3.4 -0.5,-1 -0.1,-1.6 1,-1.6 h 44.5 c 0.4,0 0.7,0.1 1,0.4 6.5,6.6 11.1,8.6 17.4,0.3 0.2,-0.3 0.5,-0.4 0.8,-0.4 l 19.5,-0.4 c 0.4,0 0.6,0.2 0.6,0.6 0.3,24.7 0.4,49.3 0.2,73.9 0,4 -0.1,7.7 -0.4,11 0.1,1.1 -0.3,1.2 -1,0.5 z"
   id="path148" />
<path
   class="st14"
   d="m 290.1884,283.4175 c -10.5,-11.8 -22.3,-22.5 -33.5,-33.8 -0.2,-0.2 -0.4,-0.5 -0.4,-0.9 l -0.3,-20.5 c 0,-0.3 0.1,-0.4 0.4,-0.4 l 35.7,-0.3 c 0.3,0 0.5,0.1 0.7,0.3 6.2,6.2 12.2,9.4 18.6,0.5 0.3,-0.4 0.6,-0.5 1,-0.5 l 13.2,-0.3 c 0.4,0 0.7,0.3 0.7,0.7 0,0 0,0 0,0 l 0.1,89 c 0,0.7 -0.2,0.8 -0.7,0.3 l -23.8,-23.9 c -0.3,-0.3 -0.3,-0.6 0.1,-0.9 4.2,-2.5 6.5,-7.1 4.2,-11.7 -3.7,-7.1 -13.8,-5.4 -15.5,2.3 0,0.2 -0.2,0.3 -0.4,0.2 0,0 -0.1,0 -0.1,-0.1 z"
   id="path150" />
<path
   class="st14"
   d="m 332.8884,227.6175 h 22.2 c 0.4,0 0.7,0.3 0.7,0.7 v 96.9 c 0,0.4 -0.3,0.7 -0.7,0.7 h -22.2 c -0.4,0 -0.7,-0.3 -0.7,-0.7 v -96.9 c 0,-0.4 0.3,-0.7 0.7,-0.7 z"
   id="path152" />
<path
   class="st15"
   d="m 359.6884,231.0175 c 1.5,1.9 3.7,3.5 5.1,5.1 6.6,7.1 13.2,14.2 19.9,21.3 2,2.1 1.8,4.1 -0.6,6 -3.4,2.6 -11.3,7.4 -23.9,14.4 -1,-15.9 -1.2,-31.5 -0.5,-46.8 z"
   id="path154" />
<path
   class="st15"
   d="m 368.6884,732.6175 c -3.5,-0.6 -6.7,-0.7 -9.5,-0.2 0.1,-14.8 0,-29.7 -0.2,-44.6 -0.3,-23.6 -0.2,-47.4 -0.1,-71 0.2,-67.1 0.2,-134.1 0.1,-201.2 0,-4.4 0,-10.2 0.2,-17.5 0.2,-9 -0.3,-18 1,-26.9 l 0.2,0.9 c 0.1,0.4 0.3,0.5 0.7,0.5 10.4,-2.1 20.6,-5.1 30.5,-9 0.3,-0.1 0.6,-0.1 0.9,0.2 4.4,4.9 9.7,6.4 15.7,4.6 8.8,-2.6 12.3,-8.8 10.4,-18.4 -0.1,-0.3 0,-0.6 0.3,-0.8 7.4,-5.6 15,-11.3 21.6,-17.4 10.9,-10.1 20.1,-20.8 29.7,-31.6 0.2,-0.2 0.5,-0.3 0.8,-0.3 12.7,2.1 22,-6.7 20.1,-19.3 -0.1,-0.4 0.1,-0.5 0.5,-0.6 l 73.4,-2.6 c 0.7,0 1,-0.4 1,-1.1 l -1.5,-23.1 c 0.7,-0.2 1.2,0.1 1.5,0.8 0.1,0.3 0.3,0.5 0.5,0.7 1.1,0.8 1.6,1.8 1.6,3 0,3.9 0.4,7.4 1.3,10.5 0.7,2.6 1.1,4.5 1.2,5.7 0.7,9.6 0,13.2 -10.3,14.1 -7.3,0.6 -14.5,1.4 -21.7,2.5 -3.1,0.5 -6.1,-0.5 -9.3,-0.4 -2.2,0.1 -4.3,1.5 -7,1.2 -4.6,-0.6 -18.1,-1.4 -19.6,4.6 -0.6,2.4 -1.2,3.7 -1.6,3.7 -0.3,0 -0.5,0.2 -0.5,0.5 -1.1,6.1 -3.9,10.4 -8.6,12.9 -2,1.1 -3.8,1.9 -5.3,2.4 -4.5,1.4 -8.7,0.9 -13.6,3 -4.2,1.8 -7.7,7 -10.5,10.4 -3,3.5 -5.9,8.5 -10.6,11.8 -4.4,3 -7.1,6.9 -11.8,9.6 -0.2,0.1 -0.3,0.1 -0.5,-0.1 0,-0.1 0,-0.2 0.1,-0.3 0,0 0,-0.1 0,-0.1 0,0 -0.1,0 -0.1,0 -4.8,2.1 -7.5,5.5 -8.3,10.3 -1.3,8.2 -2.5,14 -8.5,20.2 -0.1,0.1 -0.2,0.1 -0.2,0 l -0.2,-0.3 c 0,0 -0.1,0 -0.2,0.1 -1.4,1.6 -3.1,2.5 -5.3,2.7 -0.1,0 -0.2,0.1 -0.2,0.2 0,0.1 0,0.2 0,0.3 0,0.1 0,0.1 -0.1,0.1 -3,0.5 -6,0.6 -9,0.2 -0.2,0 -0.4,0 -0.6,0.2 -0.1,0.1 -0.3,0.1 -0.5,0.1 -6.8,-1.6 -13.2,-4.5 -20.2,-3.5 -1.3,0.2 -3,-0.2 -4.5,0.8 -0.3,0.2 -0.6,0.3 -0.9,0.3 -2.8,0.4 -5.1,1.5 -6.9,3.4 -6.3,6.5 -3.8,16 -3.8,23.9 -0.1,40.2 0.2,80.4 -0.1,120.6 0,0.3 -7.5,6.3 -3,9.2 0.5,0.3 0.6,1 0.3,1.5 -0.2,0.3 -0.4,0.4 -0.7,0.5 l -1.9,0.3 c -1,0.1 -1.8,1 -1.9,2.1 l -0.2,9.6 c 0,0.3 0.1,0.6 0.2,0.9 l 1.2,1.9 c 0.2,0.3 0.3,0.6 0.3,0.9 l 0.1,3.7 c 0,0.3 0.1,0.5 0.4,0.7 1.3,0.7 2.3,0.4 2.9,-0.9 0.2,-0.4 0.7,-0.6 1.1,-0.4 0.3,0.1 0.5,0.5 0.5,0.8 l -0.1,6.7 c 0,0.5 -0.4,0.9 -0.9,0.9 -0.2,0 -0.3,0 -0.5,-0.1 -0.8,-0.4 -1.5,-0.4 -2.2,0 -0.3,0.2 -0.4,0.5 -0.2,0.8 0.9,1.8 0.4,3.1 -1.2,4 -0.3,0.2 -0.5,0.4 -0.6,0.7 -1.1,2.5 -0.6,4.8 -1.1,7.4 -0.4,2.2 -0.2,4.4 0.8,6.6 0.1,0.3 0.1,0.6 0,0.9 -0.3,0.6 -0.2,1.3 0.3,1.9 0.2,0.3 0.8,0.4 1.7,0.6 3.1,0.4 4.1,40 4.3,57.3 0.1,11.5 -0.4,24.6 -0.1,37 0.3,12 0,24.2 -0.8,36.2 -0.8,3.5 -0.7,7.5 -0.2,11.6 z"
   id="path156" />
<path
   class="st14"
   d="m 256.5884,257.6175 c 16.4,17.1 26.2,26.6 39.1,38.6 1.5,1.4 2.5,2.5 2.5,4.7 0,8.1 0.1,16 0.3,23.9 0,0.5 -0.4,0.8 -0.8,0.8 -9.6,0.2 -19.2,0.4 -28.8,0.4 -7.9,0 -12.9,-1.5 -12.9,-10.3 0,-16.3 0.1,-32.5 0.3,-48.8 0,-2.1 -0.6,-6 -0.2,-9.1 0,-0.5 0.2,-0.5 0.5,-0.2 z"
   id="path158" />
<path
   class="st12"
   d="m 409.9884,338.1175 c -0.6,-0.2 -0.9,-0.7 -1,-1.3 -1,-21.7 -2,-43.5 -2.8,-65.3 -0.2,-5.1 6.1,-3.1 8.9,-2.5 15,2.9 30,6.1 44.9,9.5 0.3,0.1 0.5,0.3 0.4,0.6 -0.5,5 0.5,9.7 3.2,14 0.4,0.7 0.4,1.6 -0.1,2.2 -14.2,17.2 -30.2,32.6 -47.8,46.2 -0.4,0.3 -0.8,0.3 -1.1,-0.1 -1.2,-1.6 -2.7,-2.6 -4.6,-3.3 z"
   id="path160" />
<path
   class="st14"
   d="m 324.2884,326.1175 -20.1,-0.4 c -0.2,0 -0.3,-0.1 -0.3,-0.4 l -0.1,-21.5 c 0,-0.2 0.1,-0.2 0.2,-0.1 l 20.8,21.4 c 0.2,0.2 0.2,0.6 0,0.8 -0.2,0.1 -0.3,0.2 -0.5,0.2 z"
   id="path162" />
<path
   class="st11"
   d="m 509.2884,328.4175 c -3,-2.1 -7.2,-5.1 -3.7,-8.3 1,-0.9 2.6,-0.9 3.6,0.1 9.7,10.4 25,8.9 34.7,-0.4 0.2,-0.2 0.5,-0.3 0.9,-0.3 1.2,0.1 2.1,0.7 2.8,1.7 2.7,3.9 -5.7,8.7 -8.3,9.9 -10.7,4.8 -20.6,3.9 -30,-2.7 z"
   id="path164" />
<path
   class="st11"
   d="m 168.3884,327.6175 c -1.4,-1.2 -2.5,-2.5 -3,-3.9 -0.2,-0.3 -0.2,-0.7 0,-1 0.5,-1.3 1.4,-2.2 2.7,-2.8 0.3,-0.1 0.6,-0.1 0.8,0.1 11.4,10 24.7,10.9 36.1,0.3 0.3,-0.3 0.7,-0.3 1,0 l 2.3,1.9 c 0.3,0.2 0.4,0.6 0.3,0.9 -1.4,4.9 -9.2,8.7 -13.8,10 -9.8,2.9 -18.6,1 -26.4,-5.5 z"
   id="path166" />
<path
   class="st14"
   d="m 332.5884,331.6175 22.4,-0.1 c 0.3,0 0.6,0.3 0.6,0.6 l 0.2,39.3 c 0,0.3 -0.3,0.6 -0.6,0.6 l -22.4,0.1 c -0.3,0 -0.6,-0.3 -0.6,-0.6 l -0.2,-39.3 c 0.1,-0.4 0.3,-0.6 0.6,-0.6 z"
   id="path168" />
<path
   class="st14"
   d="m 355.6884,730.2175 c -3.4,0.7 -8.4,0.5 -11.9,0.2 -8.8,-0.8 -17.5,-1.5 -26.3,-2.1 -10.5,-0.8 -22.7,-3.7 -37.1,-5.8 -2.2,-0.3 -3.3,-1.7 -3.2,-4.2 0,-9.6 -0.1,-29.2 -0.3,-59 -0.2,-20.1 -5.9,-38.2 -17.1,-54.2 -0.2,-0.2 -0.3,-0.3 -0.5,-0.3 -0.2,0 -0.4,0 -0.7,0.1 -14.4,-19.4 -29.9,-27.4 -54.2,-27.4 -23.3,0 -46.7,0.1 -70,0.3 -2.8,0 -6.6,-0.4 -11.5,-1.3 l -1.8,-0.8 c -4.7,-3.2 -8.7,-7 -11.8,-11.3 -4.9,-6.8 -5.8,-14 -2.8,-21.4 4,-9.9 3.9,-17.9 0.3,-27.9 -1.4,-4.1 -6.900004,-6.8 -9.200004,-10.9 -3.3,-5.9 -4.3,-12.2 -2.9,-19 1,-4.6 3.9,-9.2 6.400004,-13.6 0.2,-0.3 0.1,-0.6 -0.1,-0.8 -5.500004,-4.8 -10.600004,-13.5 -6.600004,-20.9 2.9,-5.1 7.500004,-11.1 8.300004,-16.3 0.6,-4 -0.3,-7.6 -2.800004,-10.6 -4.3,-2.3 -9.4,-4.4 -15.3,-6.3 -4.9,-1.6 -9.6,-3.8 -14.3,-6.8 -4.8,-5.8 -6.2,-11.8 -4.2,-18 1.3,-4.2 5,-8.9 7.8,-12.9 0.6,-0.9 1.6,-1.4 2.7,-1.5 4.5,-0.4 9.3,-0.5 14.4,-0.5 88.000004,-0.2 176.100004,-0.2 264.100004,-0.2 0.4,0 0.5,0.2 0.5,0.5 v 352.9 z"
   id="path170" />
<path
   class="st12"
   d="m 121.1884,575.6175 c -9.4,-3.4 -15.3,-10 -17.9,-19.7 -1.8,-6.8 0.1,-11.4 2.9,-18.2 2.8,-6.9 1.4,-15.5 -1.1,-22.3 -1.3,-3.7 -6.400004,-6.2 -8.000004,-8.6 -2.7,-3.8 -4.4,-8 -5,-12.7 0,-0.3 -0.2,-0.5 -0.6,-0.5 h -10 l -58.1,-0.1 c -0.3,0 -0.5,-0.1 -0.7,-0.4 l -0.3,-0.5 c 0.4,-0.5 0.4,-1.1 0,-1.9 -0.1,-0.4 0.5,-0.6 2,-0.6 21.9,-0.2 44,-0.2 66.4,-0.2 0.4,0 0.6,-0.2 0.6,-0.6 0.5,-7.2 3,-11 6.8,-16.9 0.2,-0.3 0.2,-0.6 -0.1,-0.9 -4.8,-6 -8.4,-10.4 -7.7,-17.3 0.9,-8.5 9.3,-14.2 10.400004,-22.7 0.3,-2.8 0.1,-5.7 -0.800004,-8.7 2.500004,3 3.400004,6.6 2.800004,10.6 -0.8,5.2 -5.400004,11.2 -8.300004,16.3 -4.1,7.3 1.1,16 6.600004,20.9 0.2,0.2 0.3,0.5 0.1,0.8 -2.500004,4.3 -5.400004,8.9 -6.400004,13.6 -1.4,6.7 -0.4,13 2.9,19 2.2,4 7.700004,6.8 9.200004,10.9 3.5,10 3.6,18.1 -0.3,27.9 -3,7.5 -2.1,14.6 2.8,21.4 3.1,4.4 7,8.2 11.8,11.4 z"
   id="path172" />
<path
   class="st14"
   d="m 22.388396,492.7175 0.3,0.5 c 0.1,0.3 0.4,0.4 0.7,0.4 l 58.1,0.1 c 0.4,0.1 0.8,0.2 1.3,0.2 0.3,0 0.4,0.1 0.3,0.4 -0.3,0.9 -0.3,1.7 0.1,2.4 2.1,4 3.1,8.1 3.2,12.2 0.1,2.8 0.9,5.2 1.2,7.8 1.3,9.2 5.2,17.3 5.8,26.9 0.4,5.9 1,11.7 2,17.5 1.9,11.1 2.9,18.1 8.600004,25.9 3.5,4.7 7.4,8.6 11.7,11.6 0.5,0.4 0.9,0.7 1.2,1 0.2,0.2 0.4,0.4 0.7,0.5 1.5,0.7 3.9,2.2 7.3,4.4 5.2,3.3 13.7,5.2 20.5,6.1 17.7,2.3 35.3,0 52.9,2.4 4.1,0.6 8.4,0.6 12.8,0 11.6,-1.4 23.6,4.1 31.8,11.5 0.2,0.2 0.5,0.3 0.8,0.3 0.5,0 1,0.3 1.3,0.8 4.2,6.6 6.9,13.2 8.5,20.8 0.4,1.8 0.9,3.6 1.5,5.4 0.1,0.2 0,0.4 -0.3,0.5 -0.2,0.1 -0.3,0.4 -0.2,0.7 2.8,5.8 2.1,9.9 2.2,16 0.2,8.9 0.4,17.8 0.6,26.7 0,2.8 1.1,8.9 3,18.3 0.2,1.1 -0.2,1.9 -1.2,2.5 -74,-22.6 -137.5,-63.8 -185.500004,-124.7 -21.5,-27.2 -37.4,-57.1 -50.4,-89.7 -1.2,-2.9 -2,-5.4 -2.4,-7.4 -0.1,-0.3 0,-0.6 0.2,-0.9 0.5,-0.3 0.9,-0.7 1.4,-1.1 z"
   id="path174" />
<path
   class="st11"
   d="m 695.4884,493.9175 c 0.3,0.3 0.3,1 -0.2,2 -0.5,1.1 -0.7,1.7 -0.7,1.7 -22.2,61.1 -58.7,112 -109.4,152.8 -30.3,24.4 -64.4,44.3 -100.8,57.5 -13.4,4.8 -26.9,9.1 -40.6,12.7 -0.5,0.1 -0.9,-0.1 -1.4,-0.6 0.1,0.1 0.2,0.2 0.4,0.2 0.2,-0.1 0.4,-0.2 0.4,-0.5 -0.2,-20.9 -0.2,-41.7 0,-62.6 0.3,-25 9.7,-50.3 28.4,-67 12.1,-10.9 24.6,-12.8 41.3,-12.8 23.4,0.1 46.7,0 70.1,-0.1 5.8,0 10.1,-0.5 13,-1.5 10.2,-3.4 18.2,-13.6 17.7,-24.7 -0.3,-6.7 -4.8,-12.9 -5,-19.8 -0.2,-4 0.1,-8.3 0.9,-12.8 0.6,-3.5 1.5,-4.9 4.6,-6.9 6.1,-3.9 9.7,-9.6 10.7,-17.1 0,-0.4 0.3,-0.6 0.6,-0.6 z"
   id="path176" />
<path
   class="st16"
   d="m 81.388396,493.8175 h 10 c 0.3,0 0.5,0.2 0.6,0.5 0.7,4.6 2.3,8.9 5,12.7 1.6,2.3 6.700004,4.9 8.000004,8.6 2.5,6.8 3.9,15.4 1.1,22.3 -2.8,6.8 -4.7,11.3 -2.9,18.2 2.6,9.7 8.5,16.3 17.9,19.7 l 1.8,0.8 c -0.5,0.2 -0.9,0.4 -1.1,0.8 -0.2,0.3 -0.1,0.5 0,0.8 4.2,6.2 8.5,6.8 14.6,8.7 3.8,1.2 7.4,1 11.3,1.2 0.1,0 0.1,0 0.1,0.1 0,0.1 0.1,0.2 0.1,0.3 0,0.1 0.1,0.2 0.3,0.2 11.4,0.1 22.8,0.3 34.2,0.7 9.4,0.3 19.9,0 29.9,0.3 2.1,0.1 4.5,1 6.8,1.2 5.4,0.5 10.5,2.2 15.7,3.9 0.1,0 0.4,0.2 0.8,0.5 0.3,0.2 0.7,0.5 1.3,0.7 4.4,1.4 9.2,3.7 14.3,6.9 0.3,0.2 0.6,0.2 0.9,0.2 0.8,-0.1 1.4,0.1 1.9,0.6 0.1,0.1 0.3,0.3 0.4,0.4 2.1,1.7 3.6,2.2 4.6,1.7 8.9,15.3 13.7,31.1 14.4,47.5 0.4,10.2 0.6,31.9 0.7,65.2 0,0.2 0.2,0.3 0.6,0.4 l -1.3,1.6 c -0.2,0.3 -0.5,0.4 -0.9,0.3 l -13.1,-3.8 c 1,-0.6 1.4,-1.4 1.2,-2.5 -2,-9.4 -3,-15.5 -3,-18.3 -0.2,-8.9 -0.3,-17.8 -0.6,-26.7 -0.2,-6.1 0.6,-10.2 -2.2,-16 -0.1,-0.2 0,-0.5 0.2,-0.7 0.2,-0.2 0.3,-0.3 0.3,-0.5 -0.6,-1.8 -1.1,-3.6 -1.5,-5.4 -1.6,-7.6 -4.3,-14.2 -8.5,-20.8 -0.3,-0.5 -0.8,-0.8 -1.3,-0.8 -0.3,0 -0.6,-0.1 -0.8,-0.3 -8.2,-7.4 -20.2,-12.9 -31.8,-11.5 -4.4,0.5 -8.7,0.5 -12.8,0 -17.6,-2.3 -35.2,-0.1 -52.9,-2.4 -6.9,-0.9 -15.4,-2.8 -20.5,-6.1 -3.4,-2.2 -5.8,-3.7 -7.3,-4.4 -0.3,-0.1 -0.5,-0.3 -0.7,-0.5 -0.3,-0.3 -0.7,-0.7 -1.2,-1 -4.3,-3 -8.2,-6.8 -11.7,-11.6 -5.700004,-7.8 -6.700004,-14.8 -8.600004,-25.9 -1,-5.8 -1.7,-11.6 -2,-17.5 -0.6,-9.5 -4.5,-17.6 -5.8,-26.9 -0.4,-2.7 -1.2,-5.1 -1.2,-7.8 -0.1,-4.1 -1.2,-8.2 -3.2,-12.2 -0.4,-0.7 -0.4,-1.5 -0.1,-2.4 0.1,-0.3 0,-0.4 -0.3,-0.4 -0.9,-0.4 -1.3,-0.4 -1.7,-0.6 z"
   id="path178" />
<path
   class="st13"
   d="m 122.9884,576.5175 c 4.8,0.9 8.7,1.4 11.5,1.3 23.3,-0.2 46.7,-0.3 70,-0.3 24.3,0 39.8,8 54.2,27.4 0.1,-0.1 0.2,0.1 0.5,0.6 -0.9,0.5 -2.5,-0.1 -4.6,-1.7 -0.2,-0.1 -0.3,-0.3 -0.4,-0.4 -0.5,-0.5 -1.1,-0.7 -1.9,-0.6 -0.3,0.1 -0.7,0 -0.9,-0.2 -5.1,-3.1 -9.9,-5.4 -14.3,-6.9 -0.6,-0.2 -1,-0.4 -1.3,-0.7 -0.4,-0.3 -0.6,-0.5 -0.8,-0.5 -5.2,-1.6 -10.3,-3.3 -15.7,-3.9 -2.3,-0.2 -4.6,-1.1 -6.8,-1.2 -10,-0.3 -20.5,0 -29.9,-0.3 -11.4,-0.4 -22.8,-0.6 -34.2,-0.7 -0.1,0 -0.2,-0.1 -0.3,-0.2 0,-0.1 -0.1,-0.2 -0.1,-0.3 0,-0.1 -0.1,-0.1 -0.1,-0.1 -3.9,-0.2 -7.5,0 -11.3,-1.2 -6.1,-1.9 -10.4,-2.5 -14.6,-8.7 -0.2,-0.3 -0.2,-0.5 0,-0.8 0.1,-0.2 0.5,-0.5 1,-0.6 z"
   id="path180" />
<path
   class="st12"
   d="m 258.5884,604.8175 c 0.3,-0.1 0.5,-0.1 0.7,-0.1 0.2,0 0.3,0.1 0.5,0.3 11.2,16 16.9,34.1 17.1,54.2 0.2,29.8 0.3,49.5 0.3,59 -1.1,-0.6 -1.9,-0.5 -2.5,0.2 -0.4,0 -0.6,-0.1 -0.6,-0.4 0,-33.3 -0.2,-55 -0.7,-65.2 -0.7,-16.4 -5.5,-32.3 -14.4,-47.5 -0.2,-0.3 -0.3,-0.5 -0.4,-0.5 z"
   id="path182" />
<path
   class="st15"
   d="m 367.5884,588.8175 c 4.2,-2.3 1.5,-24.7 1.5,-24.7 l 0.8,-37.3 z"
   id="path184" />
<polygon
   class="st15"
   points="519.2,674.2 514.1,696.9 518.5,705.4 515.8,738.5 518.8,735.2 521.4,748.3 522.9,754.8 523,762.1 523,769.9 522.9,752.2 523.7,674.2 "
   id="polygon186"
   transform="translate(-153.8116,-147.4825)" />
</svg>
